<svg width="26" height="22" fill="none" xmlns="http://www.w3.org/2000/svg"><path d="M25.243 2.924a9.72 9.72 0 0 1-1.24.452 5.485 5.485 0 0 0 1.116-1.964.414.414 0 0 0-.605-.482 9.764 9.764 0 0 1-2.886 1.14A5.533 5.533 0 0 0 17.774.5a5.512 5.512 0 0 0-5.46 6.218 14.097 14.097 0 0 1-9.676-5.134.413.413 0 0 0-.679.054 5.503 5.503 0 0 0-.745 2.768c0 1.327.473 2.586 1.31 3.57a4.664 4.664 0 0 1-.737-.33.413.413 0 0 0-.614.353v.073a5.526 5.526 0 0 0 2.695 4.735 4.739 4.739 0 0 1-.42-.06.414.414 0 0 0-.47.532 5.504 5.504 0 0 0 4.033 3.69 9.74 9.74 0 0 1-5.207 1.487c-.39 0-.783-.023-1.167-.069a.414.414 0 0 0-.272.76 14.848 14.848 0 0 0 8.03 2.353c5.606 0 9.113-2.644 11.068-4.861 2.437-2.765 3.835-6.426 3.835-10.042 0-.151-.002-.304-.007-.456a10.705 10.705 0 0 0 2.464-2.61.414.414 0 0 0-.512-.607Z" fill="url(#a)"/><defs><linearGradient id="a" x1="5.387" y1="28.325" x2="-7.929" y2="19.602" gradientUnits="userSpaceOnUse"><stop stop-color="#802B6A"/><stop offset="1" stop-color="#5E84D2"/></linearGradient></defs></svg>