<svg width="26" height="26" fill="none" xmlns="http://www.w3.org/2000/svg"><path d="M.178 24.165 6.418 13 .124 1.736A.896.896 0 0 1 1.295.492l24.199 11.701a.896.896 0 0 1 0 1.614L1.295 25.509a.894.894 0 0 1-.39.089H.896a.896.896 0 0 1-.718-1.433ZM23.045 13 3.075 3.343l5.152 9.22a.895.895 0 0 1 0 .874l-5.152 9.22L23.045 13Z" fill="url(#a)"/><defs><linearGradient id="a" x1="13" y1=".402" x2="13" y2="25.598" gradientUnits="userSpaceOnUse"><stop stop-color="#3C7EFF"/><stop offset="1" stop-color="#E741BC"/></linearGradient></defs></svg>