<svg version="1.0" xmlns="http://www.w3.org/2000/svg" width="266.667" height="238.667" viewBox="0 0 200 179"><path d="M97.3 15.4C93 17.3 88.4 24 74.4 48.5 54.8 82.6 43.7 101.8 37 113c-20.8 34.9-22.2 41-11 47.1 2 1.1 15.5 1.5 72.9 1.7 77.4.3 78.6.2 83.1-5.6 4-5 1.1-14.3-10.2-32.5-2.6-4.3-4.8-8-4.8-8.3 0-.2-1.8-3.3-4-6.9-2.2-3.6-4-6.8-4-7.2 0-.3-.6-1.4-1.4-2.2-.7-.9-3.2-5.2-5.6-9.6-2.3-4.4-4.6-8.2-5-8.5-.4-.3-1.5-2.1-2.3-4-1.6-3.5-4.7-9-5.7-10-.7-.7-4.8-8-6.8-12-.9-1.9-2-3.7-2.3-4-.3-.3-2.6-4.1-4.9-8.5-9.4-17.4-16.8-26.8-22-27.9-1.4-.3-3.9.1-5.7.8z"/></svg>