<svg version="1.0" xmlns="http://www.w3.org/2000/svg" width="224" height="210.667" viewBox="0 0 168 158"><path d="M61.3 12.5C54.8 15.2 50.4 22.7 44.4 41c-1.8 5.8-4.1 12.5-5 15-.9 2.5-2 6.1-2.5 8-.6 1.9-1.4 4.4-1.9 5.5-.4 1.1-3.4 10.1-6.5 20s-6 18.9-6.5 20c-1.7 4-3 11.5-3 17.1 0 4.5.6 6.6 2.7 10.1 5.7 8.9 15.9 9.4 47.3 2.3 10.2-2.3 20.1-4.4 22-4.7 1.9-.2 4.6-.8 6-1.3 1.4-.4 6.6-1.6 11.5-2.5 5-.9 10.1-2.1 11.5-2.5 1.4-.5 4.4-1.1 6.7-1.4 6.1-.8 16.4-4.4 20-7.2 5.6-4.2 7.6-8.7 7-15.3-.8-8.8-6.2-16.2-31-42.3-5.1-5.4-9-9.8-18.2-20.3C83.1 17 77.3 12.2 68.9 11.7c-2.6-.2-6.1.2-7.6.8z"/></svg>