<svg width="95" height="62" fill="none" xmlns="http://www.w3.org/2000/svg"><path d="M.827 58.538c0-.608.047-1.169.277-1.59.185-.42.462-.748.785-1.029.323-.28.738-.467 1.245-.56.462-.14 1.062-.188 1.662-.188.415 0 .784 0 1.2.047.415.047.738.14 1.06.187.324.047.739.187 1.062.28l-.738 1.918c-.139-.14-.323-.187-.508-.328-.185-.14-.415-.187-.646-.28-.185-.047-.461-.14-.646-.187-.185-.047-.415-.047-.6-.047-.138 0-.277 0-.415.047a1.09 1.09 0 0 0-.415.28c-.139.14-.185.328-.277.562-.139.187-.185.56-.185.888 0 .327.046.608.139.888a.92.92 0 0 0 .276.561c.139.14.277.188.416.281.138.047.277.047.415.047.185 0 .415 0 .6-.047.184-.047.415-.14.646-.187.184-.047.415-.187.646-.28.184-.14.415-.188.507-.328l.785 2.01c-.323.141-.646.188-1.061.281-.323.047-.646.14-1.062.187-.415.047-.784.047-1.2.047-.6 0-1.107-.047-1.66-.187-.462-.14-.923-.28-1.246-.561-.323-.28-.6-.608-.785-1.029a5.149 5.149 0 0 1-.277-1.683Zm8.629.094v-.982c0-.328-.046-.608-.046-.982 0-.281-.046-.562-.139-.842-.092-.28-.138-.42-.138-.561h4.384c.507 0 1.015.047 1.338.187.415.14.646.28.922.468.277.186.416.42.508.7.139.281.185.562.185.843 0 .187 0 .42-.046.607-.047.187-.139.421-.277.562a2.202 2.202 0 0 1-.462.467c-.184.14-.323.28-.6.327.277.421.6.842.923 1.17.323.42.646.7 1.015 1.028H13.24c0-.327-.139-.748-.277-1.122-.185-.328-.415-.702-.6-1.029v.608c0 .187 0 .42.046.561.046.14.046.327.046.561 0 .14.046.28.139.421H9.087c.046-.14.138-.327.184-.561.047-.187.047-.468.139-.748 0-.28.046-.561.046-.889v-.794Zm2.86-1.73v1.309h.877a.56.56 0 0 0 .416-.187c.138-.14.138-.28.138-.468a.797.797 0 0 0-.138-.468c-.139-.14-.185-.187-.415-.187h-.877Zm13.29 1.636c0 1.122-.323 2.01-1.016 2.572-.645.56-1.66.841-2.999.841-1.338 0-2.307-.28-2.999-.841-.646-.561-1.015-1.45-1.015-2.572s.323-2.01 1.015-2.572c.646-.56 1.661-.841 3-.841 1.337 0 2.306.28 2.998.841.693.561 1.016 1.403 1.016 2.572Zm-5.03 0c0 .187 0 .468.046.701 0 .187.046.421.139.562a.56.56 0 0 0 .323.327c.138.047.323.14.507.14.185 0 .415-.047.508-.14a.561.561 0 0 0 .323-.328c.046-.14.138-.327.138-.56 0-.188.046-.422.046-.702 0-.187 0-.468-.046-.701 0-.187-.046-.421-.138-.562a.56.56 0 0 0-.323-.327c-.139-.047-.323-.14-.508-.14-.277 0-.415.047-.507.14a.56.56 0 0 0-.323.328c-.046.14-.139.327-.139.56-.046.234-.046.421-.046.702Zm5.676 0c0-.608.046-1.169.277-1.59a2.9 2.9 0 0 1 .784-1.029c.323-.28.738-.467 1.246-.56.461-.14 1.061-.188 1.66-.188.416 0 .785 0 1.2.047.416.047.739.14 1.062.187.323.047.738.187 1.061.28l-.738 1.918c-.139-.14-.323-.187-.508-.328-.184-.14-.415-.187-.646-.28-.184-.047-.461-.14-.646-.187-.184-.047-.415-.047-.6-.047-.138 0-.276 0-.415.047a1.09 1.09 0 0 0-.415.28c-.139.14-.185.328-.277.562-.046.187-.138.56-.138.888 0 .327.046.608.138.888a.92.92 0 0 0 .277.561c.138.14.277.188.415.281.139.047.277.047.415.047.185 0 .416 0 .6-.047.185-.047.416-.14.646-.187.185-.047.416-.187.646-.28.185-.14.416-.188.508-.328l.784 2.01c-.323.141-.646.188-1.061.281-.323.047-.646.14-1.061.187-.416.047-.785.047-1.2.047-.6 0-1.107-.047-1.661-.187-.462-.14-.923-.28-1.246-.561-.323-.28-.6-.608-.784-1.029a4.205 4.205 0 0 1-.323-1.683Zm10.381 2.292c0 .046 0 .186-.046.327-.046.14-.046.187-.184.327a2.352 2.352 0 0 1-.323.28c-.139.047-.277.047-.462.047-.184 0-.323 0-.461-.047-.138-.046-.185-.14-.323-.28a1.008 1.008 0 0 1-.185-.328c-.046-.14-.046-.187-.046-.327 0-.047 0-.187.046-.327.047-.14.047-.187.185-.328.046-.046.185-.187.323-.28.138-.047.277-.047.461-.047.185 0 .323 0 .462.047.138.047.184.14.323.28.046.047.138.188.184.328.046.14.046.234.046.327Zm1.016-2.292c0-.608.046-1.169.276-1.59.185-.42.462-.748.785-1.029.323-.28.738-.467 1.246-.56.461-.14 1.061-.188 1.66-.188.416 0 .785 0 1.2.047.416.047.739.14 1.062.187.323.047.738.187 1.061.28l-.738 1.918c-.139-.14-.323-.187-.508-.328-.184-.14-.415-.187-.646-.28-.184-.047-.461-.14-.646-.187-.184-.047-.415-.047-.6-.047-.138 0-.276 0-.415.047a1.09 1.09 0 0 0-.415.28c-.138.14-.185.328-.277.562-.046.187-.138.56-.138.888 0 .327.046.608.138.888.046.187.139.421.277.561.138.14.277.188.415.281.139.047.277.047.415.047.185 0 .416 0 .6-.047.185-.047.416-.14.646-.187.185-.047.416-.187.646-.28.185-.14.416-.188.508-.328l.784 2.01c-.323.141-.646.188-1.061.281-.323.047-.646.14-1.061.187-.416.047-.785.047-1.2.047-.6 0-1.107-.047-1.661-.187-.462-.14-.923-.28-1.246-.561-.323-.28-.6-.608-.784-1.029-.277-.56-.323-1.075-.323-1.683Zm13.934-3.226c0 .187.047.467.139.841.046.328.184.748.323 1.17.138.42.323.888.461 1.309.185.467.416.888.508 1.309.184.42.415.748.507 1.122.185.327.323.561.462.701H50.29v-.42c0-.14-.046-.328-.046-.468H48.77c-.046.187-.046.42-.046.561 0 .14 0 .28.046.42h-3.184c.046-.14.184-.28.323-.467.138-.187.277-.467.415-.748.139-.28.277-.561.416-.888.138-.328.276-.608.415-.982.138-.328.277-.702.415-1.029.139-.327.185-.608.323-.982.046-.28.139-.561.185-.842.046-.187.046-.42.046-.56h3.46v-.047Zm-1.615 3.974s0-.047-.046-.187c0-.047-.046-.187-.046-.28 0-.047-.046-.188-.046-.281 0-.047-.046-.14-.046-.14 0 .046-.046.046-.046.187 0 .14-.046.14-.046.28 0 .047-.047.187-.047.28 0 .048-.046.141-.046.188h.508v-.047h-.139Zm9.367-3.974c.462 0 .923.046 1.338.187.416.14.646.28.923.467s.416.421.508.702c.138.28.184.56.184.841 0 .328-.046.608-.184.889-.139.28-.323.56-.6.701a3.425 3.425 0 0 1-.923.468c-.415.14-.738.187-1.2.187h-1.245c0 .42.046.748.138 1.122.046.327.139.608.277.888h-3.553c.046-.14.139-.327.185-.56.046-.188.046-.468.138-.749 0-.28.046-.561.046-.888v-1.871c0-.327-.046-.608-.046-.982 0-.28-.046-.56-.138-.841-.047-.28-.139-.421-.185-.561h4.384-.047Zm-.323 2.899a.56.56 0 0 0 .416-.187c.138-.14.138-.28.138-.468a.797.797 0 0 0-.138-.468c-.139-.14-.185-.187-.416-.187h-.876v1.309h.876Zm7.66-2.899c-.046.14-.139.327-.139.56-.046.281-.046.468-.138.842-.046.328-.046.608-.046.982v1.871c0 .28.046.608.046.888s.046.561.138.748c.046.187.139.421.185.561h-3.553c.046-.14.139-.327.185-.56.046-.188.046-.468.138-.749 0-.28.046-.561.046-.888v-1.871c0-.327-.046-.608-.046-.982 0-.28-.046-.56-.138-.841l-.185-.561h3.507Zm7.844 0 .738 2.338c-.461-.188-.923-.421-1.338-.468-.415-.14-.784-.187-1.107-.28 0 .28 0 .56-.046.841v1.777c0 .28.046.608.046.888s.046.561.138.748c.046.188.139.421.185.562h-3.553c.046-.14.138-.328.184-.562.046-.187.046-.467.139-.748 0-.28.046-.56.046-.888v-2.525c-.415.047-.784.14-1.2.28-.415.14-.876.281-1.338.562l.738-2.432h6.368v-.093Zm6.275 0c0 .187.047.467.139.841.046.328.184.748.323 1.17.138.42.323.888.461 1.309.185.467.415.888.508 1.309.184.42.415.748.507 1.122.185.327.323.561.462.701h-3.692v-.42c0-.14-.046-.328-.046-.468h-1.476c-.046.187-.046.42-.046.561 0 .14 0 .28.046.42h-3.184c.046-.14.184-.28.323-.467.138-.187.277-.467.415-.748.139-.28.277-.561.415-.888.139-.328.277-.608.416-.982.138-.328.277-.702.415-1.029.138-.327.185-.608.323-.982.046-.28.139-.561.185-.842.046-.187.046-.42.046-.56h3.46v-.047Zm-1.66 3.974s0-.047-.047-.187c0-.047-.046-.187-.046-.28 0-.047-.046-.188-.046-.281 0-.047-.046-.14-.046-.14 0 .046-.046.046-.046.187 0 .047-.047.14-.047.28 0 .047-.046.187-.046.28 0 .048-.046.141-.046.188h.508v-.047h-.139Zm8.582-3.974c-.046.14-.139.327-.139.56-.046.281-.046.562-.138.842 0 .28-.046.608-.046.982v2.432c.323 0 .646-.047 1.06-.047.324-.047.647-.047 1.016-.14.323-.047.646-.14.923-.187.323-.047.6-.187.877-.28l-.647 2.337h-6.367c.046-.14.138-.327.184-.561.047-.187.047-.468.139-.748.046-.28.046-.561.046-.889v-1.87c0-.327-.046-.608-.046-.982 0-.327-.046-.561-.139-.842-.046-.28-.138-.42-.184-.56h3.507v-.047h-.046Zm6.413 5.518c0 .046 0 .186-.046.327-.046.14-.046.187-.184.327a2.32 2.32 0 0 1-.323.28c-.139.047-.277.047-.462.047-.184 0-.323 0-.461-.047-.139-.046-.185-.14-.323-.28s-.138-.187-.185-.328c-.046-.14-.046-.187-.046-.327 0-.047 0-.187.046-.327.047-.14.047-.187.185-.328.138-.14.184-.187.323-.28.138-.047.277-.047.461-.047.185 0 .323 0 .462.047.138.047.184.14.323.28.046.047.138.188.184.328.046.14.046.234.046.327Zm-80.84-44.515 7.798-8.557 17.118-5.985 6.922 1.59 2.122-2.9 7.198 8.277s14.535 4.114 14.72 4.255c.184.14 2.122 2.104 2.122 2.104l4.799.888 6.09-1.262 7.106-.047 3.784 4.723-2.353 3.18-7.337-2.011-12.32 4.582-9.92-6.312-12.874 4.676-5.768-4.255-5.629 3.553-10.52-9.632-13.058 3.133Z" fill="#8F8F8F"/><path d="m11.255 18.793 3.461 7.481 5.306 3.648 3.692-14.823-12.459 3.694Zm14.166-4.583-3.968 15.665 14.073-6.406-10.105-9.259Zm-2.815 17.02 13.29-6.031 5.998 15.43-10.382-1.075-8.906-8.323Zm14.904-7.013 4.799-3.32 4.153 4.582 14.073-4.582 9.736 5.424 12.181-2.712 7.337 3.04-19.518 3.226-13.243-1.684-9.736 2.713-4.245 8.042-5.537-14.73ZM9.733 19.635c-.092.327-6.968 12.297-6.968 12.297l10.567-4.582-3.6-7.715ZM2.535 35.44l7.982-4.957-3.783 7.949-4.2-2.993Zm11.305-6.547-3.6 7.2 8.214-3.88-4.615-3.32Zm-1.8 9.258 6.413-2.852-.507 10.614-5.906-7.762Zm8.398-6.453-.462 14.496 9.782-6.313m-7.475 6.64 9.136-5.611 10.89 1.31-20.026 4.301ZM17.67 2.895l2.998 3.554 7.014-2.525-10.013-1.03Zm1.107 5.003-7.014 7.95-5.583-5.285 12.597-2.665Z" fill="#8F8F8F"/></svg>