<svg width="20" height="20" fill="none" xmlns="http://www.w3.org/2000/svg"><path fill-rule="evenodd" clip-rule="evenodd" d="M10.83 8.982v-.029c-.005.01-.014.02-.019.03h.02Z" fill="#fff"/><path fill-rule="evenodd" clip-rule="evenodd" d="M0 0v20h20V0H0Zm6.22 16.616H3.254V7.688h2.968v8.928ZM4.738 6.47h-.02c-.995 0-1.64-.686-1.64-1.543 0-.876.664-1.542 1.68-1.542 1.015 0 1.64.666 1.659 1.542 0 .857-.644 1.543-1.679 1.543Zm12.186 10.146h-2.968v-4.777c0-1.2-.429-2.018-1.503-2.018-.82 0-1.308.551-1.523 1.085-.078.191-.098.456-.098.724v4.986h-2.97s.04-8.09 0-8.928h2.969v1.265c.394-.607 1.098-1.474 2.675-1.474 1.953 0 3.417 1.275 3.417 4.017v5.12Z" fill="#fff"/></svg>