<svg width="20" height="20" fill="none" xmlns="http://www.w3.org/2000/svg"><g clip-path="url(#a)"><path d="M19.168 8.092a7.084 7.084 0 0 0-.759-3.442 2.433 2.433 0 0 0-1.433-.833A65.299 65.299 0 0 0 10 3.558c-2.32-.04-4.64.044-6.95.25-.457.083-.88.298-1.217.617C1.083 5.117 1 6.3.916 7.3a40.242 40.242 0 0 0 0 5.4c.024.563.108 1.122.25 1.667.1.42.304.81.592 1.133.34.336.772.563 1.242.65 1.796.222 3.607.314 5.416.275 2.917.042 5.476 0 8.5-.233a2.4 2.4 0 0 0 1.276-.65c.233-.234.407-.52.508-.833a8.817 8.817 0 0 0 .433-2.834c.034-.467.034-3.283.034-3.783Zm-11.05 4.283V7.217l4.933 2.591c-1.383.767-3.209 1.634-4.934 2.567Z" fill="gray"/></g><defs><clipPath id="a"><path fill="#fff" d="M0 0h20v20H0z"/></clipPath></defs></svg>