<svg width="18" height="14" fill="none" xmlns="http://www.w3.org/2000/svg"><path d="M17.162 1.616c-.268.119-.545.22-.827.301.334-.378.59-.822.745-1.309a.276.276 0 0 0-.404-.321c-.6.355-1.246.61-1.924.76A3.689 3.689 0 0 0 12.182 0a3.675 3.675 0 0 0-3.64 4.145A9.398 9.398 0 0 1 2.092.723a.275.275 0 0 0-.452.035 3.669 3.669 0 0 0-.497 1.846c0 .885.315 1.724.873 2.38a3.11 3.11 0 0 1-.491-.22.276.276 0 0 0-.41.235v.05c0 1.32.71 2.508 1.797 3.156a3.166 3.166 0 0 1-.28-.04.276.276 0 0 0-.314.354 3.67 3.67 0 0 0 2.69 2.46 6.495 6.495 0 0 1-3.472.992c-.26 0-.522-.016-.778-.046a.276.276 0 0 0-.181.506A9.9 9.9 0 0 0 5.93 14c3.737 0 6.075-1.762 7.379-3.24 1.625-1.844 2.557-4.284 2.557-6.695 0-.101-.002-.203-.005-.304a7.135 7.135 0 0 0 1.642-1.74.276.276 0 0 0-.34-.405Z" fill="#fff"/></svg>