<svg xmlns="http://www.w3.org/2000/svg" viewBox="0 0 257.9 167.8" style="enable-background:new 0 0 257.9 167.8" xml:space="preserve"><style>.st0{fill:#fff}</style><path class="st0" d="M27.8 142.3c0-1.3.1-2.5.6-3.4.4-.9 1-1.6 1.7-2.2.7-.6 1.6-1 2.7-1.2 1-.3 2.3-.4 3.6-.4.9 0 1.7 0 2.6.1.9.1 1.6.3 2.3.4.7.1 1.6.4 2.3.6l-1.6 4.1c-.3-.3-.7-.4-1.1-.7-.4-.3-.9-.4-1.4-.6-.4-.1-1-.3-1.4-.4-.4-.1-.9-.1-1.3-.1-.3 0-.6 0-.9.1-.3.1-.6.3-.9.6-.3.3-.4.7-.6 1.2-.3.4-.4 1.2-.4 1.9s.1 1.3.3 1.9c.1.6.3.9.6 1.2.3.3.6.4.9.6.3.1.6.1.9.1.4 0 .9 0 1.3-.1s.9-.3 1.4-.4c.4-.1.9-.4 1.4-.6.4-.3.9-.4 1.1-.7l1.7 4.3c-.7.3-1.4.4-2.3.6-.7.1-1.4.3-2.3.4-.9.1-1.7.1-2.6.1-1.3 0-2.4-.1-3.6-.4-1-.3-2-.6-2.7-1.2-.7-.6-1.3-1.3-1.7-2.2-.4-1.2-.6-2.3-.6-3.6zm18.7.2v-2.1c0-.7-.1-1.3-.1-2.1 0-.6-.1-1.2-.3-1.8s-.3-.9-.3-1.2h9.5c1.1 0 2.2.1 2.9.4.9.3 1.4.6 2 1 .6.4.9.9 1.1 1.5.3.6.4 1.2.4 1.8 0 .4 0 .9-.1 1.3s-.3.9-.6 1.2c-.3.4-.6.7-1 1-.4.3-.7.6-1.3.7.6.9 1.3 1.8 2 2.5.7.9 1.4 1.5 2.2 2.2h-8.2c0-.7-.3-1.6-.6-2.4-.4-.7-.9-1.5-1.3-2.2v1.3c0 .4 0 .9.1 1.2.1.3.1.7.1 1.2 0 .3.1.6.3.9h-7.6c.1-.3.3-.7.4-1.2.1-.4.1-1 .3-1.6 0-.6.1-1.2.1-1.9v-1.7zm6.2-3.7v2.8h1.9c.3 0 .6-.1.9-.4.3-.3.3-.6.3-1s-.1-.7-.3-1c-.3-.3-.4-.4-.9-.4h-1.9zm28.8 3.5c0 2.4-.7 4.3-2.2 5.5-1.4 1.2-3.6 1.8-6.5 1.8s-5-.6-6.5-1.8c-1.4-1.2-2.2-3.1-2.2-5.5s.7-4.3 2.2-5.5c1.4-1.2 3.6-1.8 6.5-1.8s5 .6 6.5 1.8c1.5 1.2 2.2 3 2.2 5.5zm-10.9 0c0 .4 0 1 .1 1.5 0 .4.1.9.3 1.2.1.3.4.6.7.7.3.1.7.3 1.1.3.4 0 .9-.1 1.1-.3.3-.1.6-.4.7-.7.1-.3.3-.7.3-1.2 0-.4.1-.9.1-1.5 0-.4 0-1-.1-1.5 0-.4-.1-.9-.3-1.2-.1-.3-.4-.6-.7-.7-.3-.1-.7-.3-1.1-.3-.6 0-.9.1-1.1.3-.3.1-.6.4-.7.7-.1.3-.3.7-.3 1.2-.1.5-.1.9-.1 1.5zm12.3 0c0-1.3.1-2.5.6-3.4.4-.9 1-1.6 1.7-2.2.7-.6 1.6-1 2.7-1.2 1-.3 2.3-.4 3.6-.4.9 0 1.7 0 2.6.1.9.1 1.6.3 2.3.4.7.1 1.6.4 2.3.6l-1.6 4.1c-.3-.3-.7-.4-1.1-.7-.4-.3-.9-.4-1.4-.6-.4-.1-1-.3-1.4-.4-.4-.1-.9-.1-1.3-.1-.3 0-.6 0-.9.1-.3.1-.6.3-.9.6-.3.3-.4.7-.6 1.2-.1.4-.3 1.2-.3 1.9s.1 1.3.3 1.9c.1.6.3.9.6 1.2.3.3.6.4.9.6.3.1.6.1.9.1.4 0 .9 0 1.3-.1s.9-.3 1.4-.4c.4-.1.9-.4 1.4-.6.4-.3.9-.4 1.1-.7l1.7 4.3c-.7.3-1.4.4-2.3.6-.7.1-1.4.3-2.3.4-.9.1-1.7.1-2.6.1-1.3 0-2.4-.1-3.6-.4-1-.3-2-.6-2.7-1.2-.7-.6-1.3-1.3-1.7-2.2-.5-1.2-.7-2.3-.7-3.6zm22.5 4.9c0 .1 0 .4-.1.7-.1.3-.1.4-.4.7-.1.1-.4.4-.7.6-.3.1-.6.1-1 .1s-.7 0-1-.1c-.3-.1-.4-.3-.7-.6-.1-.1-.3-.4-.4-.7-.1-.3-.1-.4-.1-.7 0-.1 0-.4.1-.7.1-.3.1-.4.4-.7.1-.1.4-.4.7-.6.3-.1.6-.1 1-.1s.7 0 1 .1c.3.1.4.3.7.6.1.1.3.4.4.7.1.3.1.5.1.7zm2.2-4.9c0-1.3.1-2.5.6-3.4.4-.9 1-1.6 1.7-2.2.7-.6 1.6-1 2.7-1.2 1-.3 2.3-.4 3.6-.4.9 0 1.7 0 2.6.1.9.1 1.6.3 2.3.4.7.1 1.6.4 2.3.6l-1.6 4.1c-.3-.3-.7-.4-1.1-.7-.4-.3-.9-.4-1.4-.6-.4-.1-1-.3-1.4-.4-.4-.1-.9-.1-1.3-.1-.3 0-.6 0-.9.1-.3.1-.6.3-.9.6-.3.3-.4.7-.6 1.2-.1.4-.3 1.2-.3 1.9s.1 1.3.3 1.9c.1.4.3.9.6 1.2.3.3.6.4.9.6.3.1.6.1.9.1.4 0 .9 0 1.3-.1s.9-.3 1.4-.4c.4-.1.9-.4 1.4-.6.4-.3.9-.4 1.1-.7l1.7 4.3c-.7.3-1.4.4-2.3.6-.7.1-1.4.3-2.3.4-.9.1-1.7.1-2.6.1-1.3 0-2.4-.1-3.6-.4-1-.3-2-.6-2.7-1.2-.7-.6-1.3-1.3-1.7-2.2-.6-1.2-.7-2.3-.7-3.6zm30.2-6.9c0 .4.1 1 .3 1.8.1.7.4 1.6.7 2.5.3.9.7 1.9 1 2.8.4 1 .9 1.9 1.1 2.8.4.9.9 1.6 1.1 2.4.4.7.7 1.2 1 1.5h-8v-.9c0-.3-.1-.7-.1-1h-3.2c-.1.4-.1.9-.1 1.2 0 .3 0 .6.1.9h-6.9c.1-.3.4-.6.7-1 .3-.4.6-1 .9-1.6.3-.6.6-1.2.9-1.9.3-.7.6-1.3.9-2.1.3-.7.6-1.5.9-2.2.3-.7.4-1.3.7-2.1.1-.6.3-1.2.4-1.8.1-.4.1-.9.1-1.2h7.5zm-3.5 8.5s0-.1-.1-.4c0-.1-.1-.4-.1-.6 0-.1-.1-.4-.1-.6 0-.1-.1-.3-.1-.3 0 .1-.1.1-.1.4 0 .3-.1.3-.1.6 0 .1-.1.4-.1.6 0 .1-.1.3-.1.4h1.1v-.1zm20.3-8.5c1 0 2 .1 2.9.4.9.3 1.4.6 2 1 .6.4.9.9 1.1 1.5.3.6.4 1.2.4 1.8 0 .7-.1 1.3-.4 1.9-.3.6-.7 1.2-1.3 1.5-.6.4-1.1.7-2 1-.9.3-1.6.4-2.6.4H152c0 .9.1 1.6.3 2.4.1.7.3 1.3.6 1.9h-7.7c.1-.3.3-.7.4-1.2.1-.4.1-1 .3-1.6 0-.6.1-1.2.1-1.9v-4c0-.7-.1-1.3-.1-2.1 0-.6-.1-1.2-.3-1.8-.1-.6-.3-.9-.4-1.2h9.5zm-.7 6.2c.3 0 .6-.1.9-.4.3-.3.3-.6.3-1s-.1-.7-.3-1c-.3-.3-.4-.4-.9-.4H152v2.8h1.9zm16.6-6.2c-.1.3-.3.7-.3 1.2-.1.6-.1 1-.3 1.8-.1.7-.1 1.3-.1 2.1v4c0 .6.1 1.3.1 1.9 0 .6.1 1.2.3 1.6.1.4.3.9.4 1.2h-7.7c.1-.3.3-.7.4-1.2.1-.4.1-1 .3-1.6 0-.6.1-1.2.1-1.9v-4c0-.7-.1-1.3-.1-2.1 0-.6-.1-1.2-.3-1.8l-.4-1.2h7.6zm17 0 1.6 5c-1-.4-2-.9-2.9-1-.9-.3-1.7-.4-2.4-.6 0 .6 0 1.2-.1 1.8v3.8c0 .6.1 1.3.1 1.9 0 .6.1 1.2.3 1.6.1.4.3.9.4 1.2h-7.7c.1-.3.3-.7.4-1.2.1-.4.1-1 .3-1.6 0-.6.1-1.2.1-1.9V139c-.9.1-1.7.3-2.6.6-.9.3-1.9.6-2.9 1.2l1.6-5.2h13.8v-.2zm13.6 0c0 .4.1 1 .3 1.8.1.7.4 1.6.7 2.5.3.9.7 1.9 1 2.8.4 1 .9 1.9 1.1 2.8.4.9.9 1.6 1.1 2.4.4.7.7 1.2 1 1.5h-8v-.9c0-.3-.1-.7-.1-1H195c-.1.4-.1.9-.1 1.2 0 .3 0 .6.1.9h-6.9c.1-.3.4-.6.7-1 .3-.4.6-1 .9-1.6.3-.6.6-1.2.9-1.9s.6-1.3.9-2.1c.3-.7.6-1.5.9-2.2.3-.7.4-1.3.7-2.1.1-.6.3-1.2.4-1.8.1-.4.1-.9.1-1.2h7.5zm-3.6 8.5s0-.1-.1-.4c0-.1-.1-.4-.1-.6 0-.1-.1-.4-.1-.6 0-.1-.1-.3-.1-.3 0 .1-.1.1-.1.4 0 .1-.1.3-.1.6 0 .1-.1.4-.1.6 0 .1-.1.3-.1.4h1.1v-.1zm18.6-8.5c-.1.3-.3.7-.3 1.2-.1.6-.1 1.2-.3 1.8 0 .6-.1 1.3-.1 2.1v5.2c.7 0 1.4-.1 2.3-.1.7-.1 1.4-.1 2.2-.3.7-.1 1.4-.3 2-.4.7-.1 1.3-.4 1.9-.6l-1.4 5h-13.8c.1-.3.3-.7.4-1.2.1-.4.1-1 .3-1.6.1-.6.1-1.2.1-1.9v-4c0-.7-.1-1.3-.1-2.1 0-.7-.1-1.2-.3-1.8-.1-.6-.3-.9-.4-1.2h7.6v-.1zm13.9 11.8c0 .1 0 .4-.1.7-.1.3-.1.4-.4.7-.1.1-.4.4-.7.6-.3.1-.6.1-1 .1s-.7 0-1-.1c-.3-.1-.4-.3-.7-.6-.3-.3-.3-.4-.4-.7-.1-.3-.1-.4-.1-.7 0-.1 0-.4.1-.7.1-.3.1-.4.4-.7.3-.3.4-.4.7-.6.3-.1.6-.1 1-.1s.7 0 1 .1c.3.1.4.3.7.6.1.1.3.4.4.7.1.3.1.5.1.7z" id="Слой_4"/><g id="Слой_2"><path class="st0" d="m54.8 52 16.9-18.3 37.1-12.8 15 3.4 4.6-6.2L144 35.8s31.5 8.8 31.9 9.1c.4.3 4.6 4.5 4.6 4.5l10.4 1.9 13.2-2.7 15.4-.1 8.2 10.1-5.1 6.8-15.9-4.3-26.7 9.8-21.5-13.5-27.9 10-12.5-9.1-12.2 7.6-22.8-20.6L54.8 52z"/><path class="st0" d="m50.4 57.3 7.5 16 11.5 7.8 8-31.7zm30.7-9.8L72.5 81 103 67.3zM75 83.9 103.8 71l13 33-22.5-2.3zm32.3-15 10.4-7.1 9 9.8 30.5-9.8 21.1 11.6 26.4-5.8 15.9 6.5-42.3 6.9-28.7-3.6-21.1 5.8-9.2 17.2zm-60.2-9.8c-.2.7-15.1 26.3-15.1 26.3l22.9-9.8-7.8-16.5zM31.5 92.9l17.3-10.6-8.2 17zm24.5-14-7.8 15.4L66 86zm-3.9 19.8L66 92.6l-1.1 22.7zm18.2-13.8-1 31 21.2-13.5m-16.2 14.2 19.8-12 23.6 2.8zm-10-93.3 6.5 7.6L86 25.5zM66.7 34 51.5 51 39.4 39.7z"/></g></svg>