<svg width="30" height="24" fill="none" xmlns="http://www.w3.org/2000/svg"><path d="M25.396 2.463A24.74 24.74 0 0 0 19.29.569a.092.092 0 0 0-.099.046c-.262.469-.555 1.08-.76 1.563a22.838 22.838 0 0 0-6.858 0A15.796 15.796 0 0 0 10.8.615a.097.097 0 0 0-.098-.046 24.67 24.67 0 0 0-6.107 1.894.088.088 0 0 0-.04.033C.666 8.308-.4 13.976.124 19.571a.103.103 0 0 0 .039.072 24.874 24.874 0 0 0 7.49 3.787.097.097 0 0 0 .106-.035 17.537 17.537 0 0 0 1.532-2.492.095.095 0 0 0-.05-.133 16.29 16.29 0 0 1-2.34-1.115.096.096 0 0 1-.01-.16c.157-.118.312-.24.464-.365a.092.092 0 0 1 .096-.012c4.91 2.24 10.225 2.24 15.078 0a.092.092 0 0 1 .097.012c.15.123.308.248.467.365a.097.097 0 0 1-.008.159c-.748.437-1.53.81-2.341 1.115a.097.097 0 0 0-.051.134c.45.872.965 1.702 1.53 2.49a.095.095 0 0 0 .106.036 24.798 24.798 0 0 0 7.502-3.788.097.097 0 0 0 .04-.067c.625-6.471-1.047-12.093-4.436-17.075a.076.076 0 0 0-.039-.038v.002Zm-15.37 13.7c-1.48 0-2.697-1.357-2.697-3.024 0-1.666 1.195-3.024 2.696-3.024 1.513 0 2.72 1.37 2.696 3.025 0 1.666-1.195 3.023-2.696 3.023Zm9.968 0c-1.479 0-2.696-1.357-2.696-3.024 0-1.666 1.193-3.024 2.696-3.024 1.512 0 2.72 1.37 2.696 3.025 0 1.666-1.182 3.023-2.696 3.023Z" fill="url(#a)"/><defs><linearGradient id="a" x1="6.096" y1="30.866" x2="-8.792" y2="20.39" gradientUnits="userSpaceOnUse"><stop stop-color="#802B6A"/><stop offset="1" stop-color="#5E84D2"/></linearGradient></defs></svg>