<svg width="28" height="20" fill="none" xmlns="http://www.w3.org/2000/svg"><path d="M27.75 7.138c.062-1.79-.33-3.565-1.137-5.163a3.65 3.65 0 0 0-2.15-1.25A97.95 97.95 0 0 0 14 .338C10.52.278 7.04.403 3.575.713a3.588 3.588 0 0 0-1.825.925C.625 2.675.5 4.45.375 5.95a60.362 60.362 0 0 0 0 8.1c.036.844.162 1.682.375 2.5a3.92 3.92 0 0 0 .888 1.7 3.578 3.578 0 0 0 1.862.975c2.695.333 5.41.47 8.125.413 4.375.062 8.212 0 12.75-.35a3.6 3.6 0 0 0 1.913-.975c.35-.35.61-.779.762-1.25.447-1.372.667-2.808.65-4.25.05-.7.05-4.925.05-5.675Zm-16.575 6.425V5.825l7.4 3.888c-2.075 1.15-4.813 2.45-7.4 3.85Z" fill="url(#a)"/><defs><linearGradient id="a" x1="5.83" y1="25.943" x2="-7.07" y2="16.097" gradientUnits="userSpaceOnUse"><stop stop-color="#802B6A"/><stop offset="1" stop-color="#5E84D2"/></linearGradient></defs></svg>