<svg width="26" height="26" fill="none" xmlns="http://www.w3.org/2000/svg"><path d="M25.822 24.165 19.581 13l6.295-11.264A.896.896 0 0 0 24.705.492L.506 12.193a.896.896 0 0 0 0 1.614l24.199 11.702c.124.06.257.089.39.089h.009a.896.896 0 0 0 .718-1.433ZM2.954 13l19.97-9.657-5.152 9.22a.895.895 0 0 0 0 .874l5.152 9.22L2.955 13Z" fill="url(#a)"/><defs><linearGradient id="a" x1="13" y1=".402" x2="13" y2="25.598" gradientUnits="userSpaceOnUse"><stop stop-color="#3C7EFF"/><stop offset="1" stop-color="#E741BC"/></linearGradient></defs></svg>