<svg width="144" height="78" fill="none" xmlns="http://www.w3.org/2000/svg"><path fill-rule="evenodd" clip-rule="evenodd" d="M77.645 52.837a.6.6 0 0 0 .75.579c6.297-1.601 10.943-7.165 10.943-13.783 0-7.868-6.568-14.246-14.67-14.246-8.104 0-14.673 6.378-14.673 14.246 0 6.77 4.863 12.436 11.381 13.887a.6.6 0 0 0 .732-.583v-3.37a.635.635 0 0 0-.457-.598c-2.064-.645-3.733-1.789-5.008-3.43-1.358-1.76-2.036-3.8-2.036-6.12 0-3.064 1.185-5.575 3.557-7.53 1.97-1.622 4.212-2.432 6.727-2.432 3.242 0 5.857 1.141 7.846 3.423 1.607 1.845 2.41 3.973 2.41 6.386 0 2.366-.713 4.485-2.137 6.357-1.196 1.582-2.831 2.697-4.909 3.346a.634.634 0 0 0-.456.597v3.271Zm-.186-11.27a.62.62 0 0 0-.628-.61h-3.895a.62.62 0 0 0-.627.61v.231c0 .517-.6.774-.904.35-.545-.76-.817-1.66-.817-2.7 0-1.184.425-2.208 1.277-3.075.85-.866 1.86-1.299 3.026-1.299 1.157 0 2.161.433 3.012 1.3.851.866 1.277 1.89 1.277 3.073 0 1.009-.27 1.896-.808 2.664-.302.431-.913.176-.913-.346v-.198Z" fill="#40BCFF"/><path d="M19.058 34.256c0-.337.28-.611.627-.611h5.13a.62.62 0 0 1 .627.61v8.185c0 .384.088.686.263.908.175.217.39.325.644.325.26 0 .52-.117.78-.35a1.14 1.14 0 0 0 .398-.883v-8.184a.62.62 0 0 1 .628-.611h5.205a.62.62 0 0 1 .628.61v8.427c0 1.394-.365 2.601-1.094 3.623a6.8 6.8 0 0 1-2.849 2.315 8.971 8.971 0 0 1-3.696.783 8.69 8.69 0 0 1-2.696-.425 7.327 7.327 0 0 1-2.357-1.282 6.149 6.149 0 0 1-1.636-2.124c-.401-.844-.602-1.807-.602-2.89v-8.426Zm17.061 14.266a.62.62 0 0 1-.627-.611v-9.118c0-1.227.347-2.276 1.042-3.148.701-.877 1.625-1.538 2.773-1.982a10.007 10.007 0 0 1 3.645-.666c1.311 0 2.557.233 3.739.7 1.187.46 2.145 1.151 2.874 2.073.734.922 1.102 2.01 1.102 3.265v8.876a.62.62 0 0 1-.628.61h-5.45a.62.62 0 0 1-.628-.61v-8.468c0-.333-.096-.58-.288-.741a.94.94 0 0 0-.645-.25c-.271 0-.531.1-.78.3-.248.194-.373.424-.373.691v8.468a.62.62 0 0 1-.627.61h-5.13Zm16.671-.001a.62.62 0 0 1-.628-.61V33.782c0-.337.281-.61.628-.61h5.383a.62.62 0 0 1 .627.61v14.129a.62.62 0 0 1-.627.61H52.79ZM90.5 34.256c0-.337.28-.611.627-.611h5.13a.62.62 0 0 1 .627.61v8.185c0 .384.088.686.263.908.175.217.39.325.644.325.26 0 .52-.117.78-.35a1.14 1.14 0 0 0 .398-.883v-8.184a.62.62 0 0 1 .627-.611h5.207a.62.62 0 0 1 .627.61v8.427c0 1.394-.365 2.601-1.094 3.623a6.806 6.806 0 0 1-2.848 2.315 8.974 8.974 0 0 1-3.697.783 8.69 8.69 0 0 1-2.696-.425 7.327 7.327 0 0 1-2.356-1.282 6.149 6.149 0 0 1-1.637-2.124c-.401-.844-.602-1.807-.602-2.89v-8.426Zm32.4 4.038a.585.585 0 0 1-.27.756l-6.887 3.693a.636.636 0 0 1-.846-.23l-1.012-1.71a.602.602 0 0 1 .244-.842l1.931-1.018c.367-.194.424-.684.024-.802a2.17 2.17 0 0 0-.615-.084c-.7 0-1.399.308-2.099.9-.144.118-.795.592-.988 1.09-.12.284-.096.545-.072.71.025.214.675 1.943 1.229 2.56.579.639 1.23.947 2.002.947 1.122 0 2.341-.607 3.604-1.821a.667.667 0 0 1 .912-.017l2.679 2.525a.564.564 0 0 1 .069.768 8.814 8.814 0 0 1-1.887 1.72 11.372 11.372 0 0 1-2.917 1.397 10.893 10.893 0 0 1-3.111.474 9.32 9.32 0 0 1-2.942-.474 7.385 7.385 0 0 1-2.556-1.445c-.772-.64-1.375-1.469-1.857-2.464a9.353 9.353 0 0 1-.868-3.435v-.403c0-1.73.409-3.222 1.206-4.454.795-1.232 1.832-2.18 3.062-2.795 1.254-.616 2.508-.948 3.786-.948 3.831 0 6.558 1.8 8.179 5.402Z" fill="#fff"/></svg>