<svg width="40" height="40" fill="none" xmlns="http://www.w3.org/2000/svg"><rect x=".5" y=".5" width="38.999" height="38.999" rx="11.5" stroke="#fff"/><g clip-path="url(#a)" fill="#fff"><path d="m27.136 22.27-6.286-6.285a1.22 1.22 0 0 0-1.726 0l-.017.017a1.22 1.22 0 0 0 0 1.726l6.286 6.286a1.22 1.22 0 0 0 1.726 0l.017-.018a1.22 1.22 0 0 0 0-1.726Z"/><path d="m20.891 16.002-.017-.017a1.22 1.22 0 0 0-1.726 0l-6.286 6.285a1.22 1.22 0 0 0 0 1.726l.018.018a1.22 1.22 0 0 0 1.725 0l6.286-6.286a1.22 1.22 0 0 0 0-1.726Z"/></g><defs><clipPath id="a"><path fill="#fff" transform="rotate(90 8 20)" d="M0 0h16v16H0z"/></clipPath></defs></svg>