<svg width="95" height="62" viewBox="0 0 95 62" fill="none" xmlns="http://www.w3.org/2000/svg">
<path d="M0.827393 58.538C0.827393 57.9301 0.873535 57.369 1.10424 56.9482C1.28881 56.5273 1.56566 56.2 1.88866 55.9195C2.21165 55.6389 2.62693 55.4519 3.13449 55.3584C3.59591 55.2181 4.19575 55.1713 4.7956 55.1713C5.21088 55.1713 5.58001 55.1713 5.99529 55.2181C6.41056 55.2648 6.73356 55.3584 7.05655 55.4051C7.37954 55.4519 7.79482 55.5922 8.11782 55.6857L7.37955 57.6028C7.24112 57.4625 7.05655 57.4158 6.87198 57.2755C6.68742 57.1352 6.45671 57.0884 6.226 56.9949C6.04143 56.9482 5.76458 56.8547 5.58001 56.8079C5.39544 56.7611 5.16473 56.7611 4.98017 56.7611C4.84174 56.7611 4.70331 56.7611 4.56489 56.8079C4.42646 56.8547 4.28804 56.9482 4.14961 57.0884C4.01119 57.2287 3.96504 57.4158 3.87276 57.6495C3.73433 57.8366 3.68819 58.2107 3.68819 58.538C3.68819 58.8653 3.73433 59.1458 3.82662 59.4264C3.87276 59.7069 3.96504 59.8472 4.10347 59.9875C4.2419 60.1278 4.38032 60.1745 4.51875 60.2681C4.65717 60.3148 4.7956 60.3148 4.93402 60.3148C5.11859 60.3148 5.3493 60.3148 5.53387 60.2681C5.71844 60.2213 5.94915 60.1278 6.17986 60.081C6.36442 60.0343 6.59513 59.894 6.82584 59.8005C7.01041 59.6602 7.24112 59.6134 7.3334 59.4732L8.11782 61.4838C7.79482 61.6241 7.47183 61.6708 7.05655 61.7643C6.73356 61.8111 6.41056 61.9046 5.99529 61.9514C5.58001 61.9981 5.21088 61.9981 4.7956 61.9981C4.19575 61.9981 3.68819 61.9514 3.13449 61.8111C2.67307 61.6708 2.21165 61.5306 1.88866 61.25C1.56566 60.9694 1.28881 60.6421 1.10424 60.2213C0.919677 59.6602 0.827393 59.1458 0.827393 58.538Z" fill="#8F8F8F"/>
<path d="M9.45605 58.6315C9.45605 58.3042 9.45605 57.9301 9.45605 57.6495C9.45605 57.3222 9.40991 57.0417 9.40991 56.6676C9.40991 56.387 9.36376 56.1065 9.27148 55.8259C9.1792 55.5454 9.13306 55.4051 9.13306 55.2648H13.5165C14.0241 55.2648 14.5317 55.3116 14.8547 55.4519C15.2699 55.5921 15.5006 55.7324 15.7775 55.9195C16.0543 56.1065 16.1928 56.3403 16.2851 56.6208C16.4235 56.9014 16.4696 57.1819 16.4696 57.4625C16.4696 57.6495 16.4696 57.8833 16.4235 58.0704C16.3773 58.2574 16.2851 58.4912 16.1466 58.6315C16.0082 58.8185 15.8698 58.9588 15.6852 59.0991C15.5006 59.2393 15.3622 59.3796 15.0854 59.4264C15.3622 59.8472 15.6852 60.268 16.0082 60.5954C16.3312 61.0162 16.6542 61.2967 17.0233 61.6241H13.2397C13.2397 61.2967 13.1013 60.8759 12.9628 60.5018C12.7783 60.1745 12.5476 59.8005 12.363 59.4731C12.363 59.6602 12.363 59.894 12.363 60.081C12.363 60.268 12.363 60.5018 12.4091 60.6421C12.4553 60.7824 12.4553 60.9694 12.4553 61.2032C12.4553 61.3435 12.5014 61.4838 12.5937 61.6241H9.08691C9.13306 61.4838 9.22534 61.2967 9.27148 61.0629C9.31762 60.8759 9.31762 60.5954 9.40991 60.3148C9.40991 60.0343 9.45605 59.7537 9.45605 59.4264C9.45605 59.2393 9.45605 58.9588 9.45605 58.6315ZM12.3169 56.9014C12.3169 57.0884 12.3169 57.3222 12.3169 57.5093C12.3169 57.6963 12.3169 57.9301 12.3169 58.2107H13.1935C13.332 58.2107 13.4704 58.1639 13.6088 58.0236C13.7473 57.8833 13.7472 57.7431 13.7472 57.556C13.7472 57.369 13.7011 57.2287 13.6088 57.0884C13.4704 56.9482 13.4243 56.9014 13.1935 56.9014H12.3169Z" fill="#8F8F8F"/>
<path d="M25.6056 58.538C25.6056 59.6602 25.2826 60.5486 24.5905 61.1097C23.9445 61.6708 22.9294 61.9514 21.5913 61.9514C20.2531 61.9514 19.2842 61.6708 18.592 61.1097C17.946 60.5486 17.5769 59.6602 17.5769 58.538C17.5769 57.4158 17.8999 56.5273 18.592 55.9662C19.238 55.4051 20.2531 55.1246 21.5913 55.1246C22.9294 55.1246 23.8983 55.4051 24.5905 55.9662C25.2826 56.5273 25.6056 57.369 25.6056 58.538ZM20.5761 58.538C20.5761 58.725 20.5761 59.0056 20.6223 59.2394C20.6223 59.4264 20.6684 59.6602 20.7607 59.8005C20.8068 59.9407 20.9453 60.081 21.0837 60.1278C21.2221 60.1745 21.4067 60.2681 21.5913 60.2681C21.7758 60.2681 22.0065 60.2213 22.0988 60.1278C22.2372 60.081 22.3757 59.9407 22.4218 59.8005C22.4679 59.6602 22.5602 59.4732 22.5602 59.2394C22.5602 59.0523 22.6064 58.8185 22.6064 58.538C22.6064 58.3509 22.6064 58.0704 22.5602 57.8366C22.5602 57.6496 22.5141 57.4158 22.4218 57.2755C22.3757 57.1352 22.2372 56.9949 22.0988 56.9482C21.9604 56.9014 21.7758 56.8079 21.5913 56.8079C21.3144 56.8079 21.176 56.8546 21.0837 56.9482C20.9453 56.9949 20.8068 57.1352 20.7607 57.2755C20.7146 57.4158 20.6223 57.6028 20.6223 57.8366C20.5761 58.0704 20.5761 58.2574 20.5761 58.538Z" fill="#8F8F8F"/>
<path d="M26.2517 58.538C26.2517 57.9301 26.2979 57.369 26.5286 56.9482C26.7131 56.5273 26.99 56.2 27.313 55.9195C27.636 55.6389 28.0512 55.4519 28.5588 55.3584C29.0202 55.2181 29.6201 55.1713 30.2199 55.1713C30.6352 55.1713 31.0043 55.1713 31.4196 55.2181C31.8349 55.2648 32.1579 55.3584 32.4809 55.4051C32.8039 55.4519 33.2191 55.5922 33.5421 55.6857L32.8039 57.6028C32.6654 57.4625 32.4809 57.4158 32.2963 57.2755C32.1117 57.1352 31.881 57.0884 31.6503 56.9949C31.4657 56.9482 31.1889 56.8547 31.0043 56.8079C30.8198 56.7611 30.589 56.7611 30.4045 56.7611C30.2661 56.7611 30.1276 56.7611 29.9892 56.8079C29.8508 56.8547 29.7124 56.9482 29.5739 57.0884C29.4355 57.2287 29.3894 57.4158 29.2971 57.6495C29.2509 57.8366 29.1586 58.2107 29.1586 58.538C29.1586 58.8653 29.2048 59.1458 29.2971 59.4264C29.3432 59.7069 29.4355 59.8472 29.5739 59.9875C29.7124 60.1278 29.8508 60.1745 29.9892 60.2681C30.1276 60.3148 30.2661 60.3148 30.4045 60.3148C30.589 60.3148 30.8198 60.3148 31.0043 60.2681C31.1889 60.2213 31.4196 60.1278 31.6503 60.081C31.8349 60.0343 32.0656 59.894 32.2963 59.8005C32.4809 59.6602 32.7116 59.6134 32.8039 59.4732L33.5883 61.4838C33.2653 61.6241 32.9423 61.6708 32.527 61.7643C32.204 61.8111 31.881 61.9046 31.4657 61.9514C31.0505 61.9981 30.6813 61.9981 30.2661 61.9981C29.6662 61.9981 29.1586 61.9514 28.6049 61.8111C28.1435 61.6708 27.6821 61.5306 27.3591 61.25C27.0361 60.9694 26.7593 60.6421 26.5747 60.2213C26.344 59.6602 26.2517 59.1458 26.2517 58.538Z" fill="#8F8F8F"/>
<path d="M36.6335 60.8292C36.6335 60.8759 36.6335 61.0162 36.5874 61.1565C36.5412 61.2967 36.5412 61.3435 36.4028 61.4838C36.3567 61.5305 36.2182 61.6708 36.0798 61.7643C35.9414 61.8111 35.803 61.8111 35.6184 61.8111C35.4338 61.8111 35.2954 61.8111 35.157 61.7643C35.0186 61.7176 34.9724 61.6241 34.834 61.4838C34.7878 61.437 34.6956 61.2967 34.6494 61.1565C34.6033 61.0162 34.6033 60.9694 34.6033 60.8292C34.6033 60.7824 34.6033 60.6421 34.6494 60.5018C34.6956 60.3616 34.6956 60.3148 34.834 60.1745C34.8801 60.1278 35.0186 59.9875 35.157 59.894C35.2954 59.8472 35.4338 59.8472 35.6184 59.8472C35.803 59.8472 35.9414 59.8472 36.0798 59.894C36.2182 59.9407 36.2644 60.0343 36.4028 60.1745C36.449 60.2213 36.5412 60.3616 36.5874 60.5018C36.6335 60.6421 36.6335 60.7356 36.6335 60.8292Z" fill="#8F8F8F"/>
<path d="M37.6487 58.538C37.6487 57.9301 37.6948 57.369 37.9255 56.9482C38.1101 56.5273 38.387 56.2 38.7099 55.9195C39.0329 55.6389 39.4482 55.4519 39.9558 55.3584C40.4172 55.2181 41.017 55.1713 41.6169 55.1713C42.0322 55.1713 42.4013 55.1713 42.8166 55.2181C43.2319 55.2648 43.5549 55.3584 43.8779 55.4051C44.2008 55.4519 44.6161 55.5922 44.9391 55.6857L44.2008 57.6028C44.0624 57.4625 43.8779 57.4158 43.6933 57.2755C43.5087 57.1352 43.278 57.0884 43.0473 56.9949C42.8627 56.9482 42.5859 56.8547 42.4013 56.8079C42.2167 56.7611 41.986 56.7611 41.8015 56.7611C41.663 56.7611 41.5246 56.7611 41.3862 56.8079C41.2478 56.8547 41.1093 56.9482 40.9709 57.0884C40.8325 57.2287 40.7863 57.4158 40.6941 57.6495C40.6479 57.8366 40.5556 58.2107 40.5556 58.538C40.5556 58.8653 40.6018 59.1458 40.6941 59.4264C40.7402 59.6134 40.8325 59.8472 40.9709 59.9875C41.1093 60.1278 41.2478 60.1745 41.3862 60.2681C41.5246 60.3148 41.663 60.3148 41.8015 60.3148C41.986 60.3148 42.2167 60.3148 42.4013 60.2681C42.5859 60.2213 42.8166 60.1278 43.0473 60.081C43.2319 60.0343 43.4626 59.894 43.6933 59.8005C43.8779 59.6602 44.1086 59.6134 44.2008 59.4732L44.9853 61.4838C44.6623 61.6241 44.3393 61.6708 43.924 61.7643C43.601 61.8111 43.278 61.9046 42.8627 61.9514C42.4475 61.9981 42.0783 61.9981 41.663 61.9981C41.0632 61.9981 40.5556 61.9514 40.0019 61.8111C39.5405 61.6708 39.0791 61.5306 38.7561 61.25C38.4331 60.9694 38.1562 60.6421 37.9717 60.2213C37.6948 59.6602 37.6487 59.1458 37.6487 58.538Z" fill="#8F8F8F"/>
<path d="M51.5834 55.3116C51.5834 55.4986 51.6296 55.7792 51.7218 56.1532C51.768 56.4806 51.9064 56.9014 52.0448 57.3222C52.1833 57.7431 52.3678 58.2106 52.5062 58.6315C52.6908 59.0991 52.9215 59.5199 53.0138 59.9407C53.1984 60.3616 53.4291 60.6889 53.5214 61.0629C53.7059 61.3903 53.8444 61.624 53.9828 61.7643H50.2914C50.2914 61.624 50.2914 61.4838 50.2914 61.3435C50.2914 61.2032 50.2453 61.0162 50.2453 60.8759H48.7688C48.7226 61.0629 48.7226 61.2967 48.7226 61.437C48.7226 61.5773 48.7226 61.7176 48.7688 61.8578H45.585C45.6311 61.7176 45.7695 61.5773 45.908 61.3903C46.0464 61.2032 46.1848 60.9227 46.3232 60.6421C46.4617 60.3616 46.6001 60.081 46.7385 59.7537C46.8769 59.4264 47.0154 59.1458 47.1538 58.7718C47.2922 58.4444 47.4306 58.0704 47.5691 57.7431C47.7075 57.4157 47.7536 57.1352 47.8921 56.7611C47.9382 56.4806 48.0305 56.2 48.0766 55.9195C48.1228 55.7324 48.1228 55.4986 48.1228 55.3583H51.5834V55.3116ZM49.9684 59.2861C49.9684 59.2861 49.9684 59.2393 49.9223 59.0991C49.9223 59.0523 49.8762 58.912 49.8762 58.8185C49.8762 58.7717 49.83 58.6315 49.83 58.538C49.83 58.4912 49.7839 58.3977 49.7839 58.3977C49.7839 58.4444 49.7377 58.4444 49.7377 58.5847C49.7377 58.725 49.6916 58.725 49.6916 58.8653C49.6916 58.912 49.6455 59.0523 49.6455 59.1458C49.6455 59.1926 49.5993 59.2861 49.5993 59.3329H50.1069V59.2861H49.9684Z" fill="#8F8F8F"/>
<path d="M59.3354 55.3116C59.7968 55.3116 60.2582 55.3583 60.6735 55.4986C61.0888 55.6389 61.3195 55.7792 61.5963 55.9662C61.8732 56.1533 62.0116 56.387 62.1039 56.6676C62.2423 56.9482 62.2885 57.2287 62.2885 57.5093C62.2885 57.8366 62.2423 58.1171 62.1039 58.3977C61.9655 58.6782 61.7809 58.9588 61.5041 59.0991C61.2272 59.2861 60.9965 59.4264 60.5812 59.5667C60.1659 59.7069 59.8429 59.7537 59.3815 59.7537H58.1357C58.1357 60.1745 58.1818 60.5018 58.2741 60.8759C58.3203 61.2032 58.4125 61.4838 58.551 61.7643H54.998C55.0442 61.6241 55.1365 61.437 55.1826 61.2032C55.2288 61.0162 55.2288 60.7356 55.321 60.4551C55.321 60.1745 55.3672 59.894 55.3672 59.5667C55.3672 59.2861 55.3672 58.9588 55.3672 58.6782C55.3672 58.3509 55.3672 57.9769 55.3672 57.6963C55.3672 57.369 55.321 57.0884 55.321 56.7144C55.321 56.4338 55.2749 56.1533 55.1826 55.8727C55.1365 55.5921 55.0442 55.4519 54.998 55.3116H59.3815H59.3354ZM59.0124 58.2107C59.1508 58.2107 59.2892 58.1639 59.4277 58.0236C59.5661 57.8833 59.5661 57.7431 59.5661 57.556C59.5661 57.369 59.52 57.2287 59.4277 57.0884C59.2892 56.9482 59.2431 56.9014 59.0124 56.9014H58.1357C58.1357 56.9482 58.1357 57.0884 58.1357 57.1819C58.1357 57.2287 58.1357 57.369 58.1357 57.4625C58.1357 57.5093 58.1357 57.6495 58.1357 57.7898C58.1357 57.9301 58.1357 58.0704 58.1357 58.2107H59.0124Z" fill="#8F8F8F"/>
<path d="M66.6718 55.3116C66.6257 55.4519 66.5334 55.6389 66.5334 55.8727C66.4872 56.1533 66.4872 56.3403 66.395 56.7144C66.3488 57.0417 66.3488 57.3222 66.3488 57.6963C66.3488 58.0704 66.3488 58.3977 66.3488 58.6782C66.3488 58.9588 66.3488 59.2861 66.3488 59.5667C66.3488 59.8472 66.395 60.1745 66.395 60.4551C66.395 60.7356 66.4411 61.0162 66.5334 61.2032C66.5795 61.3903 66.6718 61.6241 66.718 61.7643H63.165C63.2112 61.6241 63.3035 61.437 63.3496 61.2032C63.3958 61.0162 63.3958 60.7356 63.488 60.4551C63.488 60.1745 63.5342 59.894 63.5342 59.5667C63.5342 59.2861 63.5342 58.9588 63.5342 58.6782C63.5342 58.3509 63.5342 57.9769 63.5342 57.6963C63.5342 57.369 63.488 57.0884 63.488 56.7144C63.488 56.4338 63.4419 56.1533 63.3496 55.8727C63.2573 55.5921 63.2112 55.4519 63.165 55.3116H66.6718Z" fill="#8F8F8F"/>
<path d="M74.516 55.3116L75.2543 57.6495C74.7929 57.4625 74.3314 57.2287 73.9162 57.1819C73.5009 57.0417 73.1317 56.9949 72.8088 56.9014C72.8088 57.1819 72.8087 57.4625 72.7626 57.7431C72.7626 58.0236 72.7626 58.3509 72.7626 58.6315C72.7626 58.912 72.7626 59.2393 72.7626 59.5199C72.7626 59.8004 72.8088 60.1278 72.8088 60.4083C72.8088 60.6889 72.8549 60.9694 72.9472 61.1565C72.9933 61.3435 73.0856 61.5773 73.1317 61.7176H69.5788C69.625 61.5773 69.7172 61.3903 69.7634 61.1565C69.8095 60.9694 69.8095 60.6889 69.9018 60.4083C69.9018 60.1278 69.948 59.8472 69.948 59.5199C69.948 59.2393 69.948 58.912 69.948 58.6315C69.948 58.4444 69.948 58.3042 69.948 58.1639C69.948 58.0236 69.948 57.8833 69.948 57.7431C69.948 57.6028 69.948 57.4625 69.948 57.4157C69.948 57.2755 69.948 57.1352 69.948 56.9949C69.5327 57.0417 69.1635 57.1352 68.7483 57.2755C68.333 57.4157 67.8716 57.556 67.4102 57.8366L68.1484 55.4051H74.516V55.3116Z" fill="#8F8F8F"/>
<path d="M80.7914 55.3116C80.7914 55.4986 80.8376 55.7792 80.9298 56.1532C80.976 56.4806 81.1144 56.9014 81.2528 57.3222C81.3913 57.7431 81.5758 58.2106 81.7143 58.6315C81.8988 59.0991 82.1295 59.5199 82.2218 59.9407C82.4064 60.3616 82.6371 60.6889 82.7294 61.0629C82.914 61.3903 83.0524 61.624 83.1908 61.7643H79.4994C79.4994 61.624 79.4994 61.4838 79.4994 61.3435C79.4994 61.2032 79.4533 61.0162 79.4533 60.8759H77.9768C77.9306 61.0629 77.9306 61.2967 77.9306 61.437C77.9306 61.5773 77.9306 61.7176 77.9768 61.8578H74.793C74.8391 61.7176 74.9775 61.5773 75.116 61.3903C75.2544 61.2032 75.3928 60.9227 75.5312 60.6421C75.6697 60.3616 75.8081 60.081 75.9465 59.7537C76.0849 59.4264 76.2234 59.1458 76.3618 58.7718C76.5002 58.4444 76.6386 58.0704 76.7771 57.7431C76.9155 57.4157 76.9616 57.1352 77.1001 56.7611C77.1462 56.4806 77.2385 56.2 77.2846 55.9195C77.3308 55.7324 77.3308 55.4986 77.3308 55.3583H80.7914V55.3116ZM79.1303 59.2861C79.1303 59.2861 79.1303 59.2393 79.0842 59.0991C79.0842 59.0523 79.038 58.912 79.038 58.8185C79.038 58.7717 78.9919 58.6315 78.9919 58.538C78.9919 58.4912 78.9457 58.3977 78.9457 58.3977C78.9457 58.4444 78.8996 58.4444 78.8996 58.5847C78.8996 58.6315 78.8535 58.725 78.8535 58.8653C78.8535 58.912 78.8073 59.0523 78.8073 59.1458C78.8073 59.1926 78.7612 59.2861 78.7612 59.3329H79.2687V59.2861H79.1303Z" fill="#8F8F8F"/>
<path d="M87.7126 55.3116C87.6665 55.4519 87.5742 55.6389 87.5742 55.8727C87.528 56.1533 87.528 56.4338 87.4357 56.7144C87.4357 56.9949 87.3896 57.3222 87.3896 57.6963C87.3896 58.0704 87.3896 58.3977 87.3896 58.725C87.3896 58.8653 87.3896 59.0056 87.3896 59.1458C87.3896 59.2861 87.3896 59.3329 87.3896 59.4731C87.3896 59.6134 87.3896 59.6602 87.3896 59.8005C87.3896 59.9407 87.3896 59.9875 87.3896 60.1278C87.7126 60.1278 88.0356 60.081 88.4509 60.081C88.7739 60.0342 89.0969 60.0342 89.466 59.9407C89.789 59.894 90.112 59.8004 90.3888 59.7537C90.7118 59.7069 90.9887 59.5667 91.2655 59.4731L90.6195 61.8111H84.252C84.2981 61.6708 84.3904 61.4838 84.4365 61.25C84.4827 61.0629 84.4827 60.7824 84.5749 60.5018C84.6211 60.2213 84.6211 59.9407 84.6211 59.6134C84.6211 59.3329 84.6211 59.0055 84.6211 58.725C84.6211 58.3977 84.6211 58.0236 84.6211 57.7431C84.6211 57.4157 84.5749 57.1352 84.5749 56.7611C84.5749 56.4338 84.5288 56.2 84.4365 55.9195C84.3904 55.6389 84.2981 55.4986 84.252 55.3583H87.7587V55.3116H87.7126Z" fill="#8F8F8F"/>
<path d="M94.1264 60.8292C94.1264 60.8759 94.1264 61.0162 94.0803 61.1565C94.0341 61.2967 94.0342 61.3435 93.8957 61.4838C93.8496 61.5305 93.7112 61.6708 93.5727 61.7643C93.4343 61.8111 93.2959 61.8111 93.1113 61.8111C92.9267 61.8111 92.7883 61.8111 92.6499 61.7643C92.5115 61.7176 92.4653 61.6241 92.3269 61.4838C92.1885 61.3435 92.1885 61.2967 92.1423 61.1565C92.0962 61.0162 92.0962 60.9694 92.0962 60.8292C92.0962 60.7824 92.0962 60.6421 92.1423 60.5018C92.1885 60.3616 92.1885 60.3148 92.3269 60.1745C92.4653 60.0343 92.5115 59.9875 92.6499 59.894C92.7883 59.8472 92.9267 59.8472 93.1113 59.8472C93.2959 59.8472 93.4343 59.8472 93.5727 59.894C93.7112 59.9407 93.7573 60.0343 93.8957 60.1745C93.9419 60.2213 94.0341 60.3616 94.0803 60.5018C94.1264 60.6421 94.1264 60.7356 94.1264 60.8292Z" fill="#8F8F8F"/>
<path d="M13.2856 16.3147L21.0836 7.75778L38.2023 1.77263L45.1236 3.36243L47.2461 0.463379L54.4442 8.73972C54.4442 8.73972 68.9789 12.8545 69.1635 12.9948C69.3481 13.1351 71.286 15.0989 71.286 15.0989L76.0848 15.9874L82.1755 14.7249L89.2814 14.6781L93.065 19.4008L90.7118 22.5804L83.3752 20.5697L71.0553 25.1521L61.1348 18.8397L48.2612 23.5156L42.4935 19.2605L36.8642 22.8142L26.3438 13.1818L13.2856 16.3147Z" fill="#8F8F8F"/>
<path d="M11.2554 18.7929L14.716 26.2743L20.0223 29.9215L23.7137 15.0989L11.2554 18.7929Z" fill="#8F8F8F"/>
<path d="M25.4211 14.2105L21.4529 29.8748L35.5262 23.4688L25.4211 14.2105Z" fill="#8F8F8F"/>
<path d="M22.6064 31.2308L35.8953 25.1989L41.8938 40.6293L31.5118 39.5538L22.6064 31.2308Z" fill="#8F8F8F"/>
<path d="M37.5103 24.2169L42.309 20.897L46.4618 25.4794L60.5351 20.897L70.271 26.3211L82.4525 23.6091L89.7891 26.6484L70.271 29.8748L57.0283 28.1914L47.2923 30.9035L43.0473 38.946L37.5103 24.2169Z" fill="#8F8F8F"/>
<path d="M9.73281 19.6346C9.64052 19.9619 2.76538 31.9322 2.76538 31.9322L13.3319 27.3498L9.73281 19.6346Z" fill="#8F8F8F"/>
<path d="M2.53467 35.4391L10.5172 30.4827L6.73358 38.4317L2.53467 35.4391Z" fill="#8F8F8F"/>
<path d="M13.8395 28.8928L10.2405 36.0937L18.4537 32.2127L13.8395 28.8928Z" fill="#8F8F8F"/>
<path d="M12.0398 38.1511L18.4535 35.2988L17.946 45.9131L12.0398 38.1511Z" fill="#8F8F8F"/>
<path d="M20.4377 31.6984L19.9763 46.1936L29.7584 39.8812" fill="#8F8F8F"/>
<path d="M22.2834 46.521L31.4195 40.9099L42.309 42.2192L22.2834 46.521Z" fill="#8F8F8F"/>
<path d="M17.6692 2.89484L20.6684 6.44852L27.682 3.92353L17.6692 2.89484Z" fill="#8F8F8F"/>
<path d="M18.7767 7.89807L11.7631 15.8471L6.17993 10.5633L18.7767 7.89807Z" fill="#8F8F8F"/>
</svg>
