<svg width="18" height="14" viewBox="0 0 18 14" fill="none" xmlns="http://www.w3.org/2000/svg">
<path d="M17.1622 1.61571C16.8936 1.73485 16.6174 1.83541 16.3352 1.91705C16.6693 1.5392 16.9241 1.09461 17.0796 0.608094C17.1144 0.499042 17.0783 0.379675 16.9886 0.308353C16.8991 0.236976 16.7747 0.228426 16.6762 0.286841C16.0769 0.642293 15.4303 0.89774 14.7523 1.04711C14.0694 0.379786 13.1418 7.62939e-06 12.1829 7.62939e-06C10.1588 7.62939e-06 8.51202 1.6467 8.51202 3.67075C8.51202 3.83017 8.52211 3.9887 8.54208 4.14502C6.03036 3.92449 3.69527 2.68995 2.09176 0.722992C2.03462 0.652884 1.94658 0.615099 1.85645 0.622325C1.76626 0.629386 1.68523 0.680243 1.63967 0.758405C1.31444 1.31646 1.14251 1.95472 1.14251 2.60412C1.14251 3.48861 1.4583 4.32782 2.01614 4.98357C1.84652 4.92482 1.68192 4.8514 1.52483 4.76419C1.44049 4.71725 1.33756 4.71797 1.25377 4.76601C1.16993 4.81406 1.11736 4.90243 1.11515 4.99901C1.11477 5.01528 1.11477 5.03156 1.11477 5.04805C1.11477 6.36831 1.82534 7.55695 2.91172 8.20481C2.81839 8.19549 2.72511 8.18197 2.63244 8.16427C2.5369 8.14601 2.43866 8.17949 2.37424 8.25236C2.3097 8.32517 2.28835 8.42667 2.31808 8.51933C2.7202 9.77478 3.7555 10.6982 5.00709 10.9798C3.96903 11.6299 2.78193 11.9705 1.53575 11.9705C1.27572 11.9705 1.01421 11.9552 0.758265 11.9249C0.631121 11.9098 0.509548 11.9849 0.466247 12.1058C0.422946 12.2268 0.468839 12.3616 0.577009 12.431C2.17792 13.4574 4.02904 14 5.93014 14C9.66746 14 12.0054 12.2376 13.3086 10.7592C14.9336 8.91566 15.8656 6.47554 15.8656 4.06454C15.8656 3.96382 15.864 3.8621 15.861 3.76072C16.5021 3.27768 17.0541 2.69309 17.5032 2.02119C17.5715 1.91914 17.5641 1.78427 17.485 1.69034C17.4061 1.59634 17.2745 1.56595 17.1622 1.61571Z" fill="white"/>
</svg>
