<svg width="20" height="20" viewBox="0 0 20 20" fill="none" xmlns="http://www.w3.org/2000/svg">
<g clip-path="url(#clip0_42_932)">
<path d="M19.1676 8.09172C19.2088 6.89892 18.948 5.71503 18.4093 4.65C18.0438 4.213 17.5365 3.91808 16.9759 3.81666C14.6572 3.60626 12.3288 3.52002 10.0008 3.55832C7.68132 3.51828 5.36133 3.60174 3.05071 3.80832C2.59388 3.89142 2.17113 4.1057 1.83402 4.425C1.08401 5.11668 1.00068 6.30003 0.917341 7.30005C0.796433 9.09804 0.796433 10.9021 0.917341 12.7001C0.94145 13.263 1.02525 13.8217 1.16735 14.3668C1.26783 14.7877 1.47112 15.1771 1.75902 15.5002C2.09842 15.8364 2.53102 16.0629 3.00071 16.1502C4.79733 16.372 6.60761 16.4639 8.41746 16.4252C11.3342 16.4669 13.8925 16.4252 16.9176 16.1918C17.3988 16.1099 17.8436 15.8831 18.1926 15.5418C18.4259 15.3084 18.6002 15.0227 18.701 14.7085C18.999 13.794 19.1454 12.8369 19.1343 11.8751C19.1676 11.4084 19.1676 8.59173 19.1676 8.09172ZM8.11745 12.3751V7.21671L13.0509 9.80842C11.6675 10.5751 9.84248 11.4418 8.11745 12.3751Z" fill="#808080"/>
</g>
<defs>
<clipPath id="clip0_42_932">
<rect width="20.0003" height="20.0003" fill="white" transform="translate(0.000732422)"/>
</clipPath>
</defs>
</svg>
