<?xml version="1.0" encoding="utf-8"?>
<!-- Generator: Adobe Illustrator 26.0.3, SVG Export Plug-In . SVG Version: 6.00 Build 0)  -->
<svg version="1.1" xmlns="http://www.w3.org/2000/svg" xmlns:xlink="http://www.w3.org/1999/xlink" x="0px" y="0px"
	 viewBox="0 0 257.9 167.8" style="enable-background:new 0 0 257.9 167.8;" xml:space="preserve">
<style type="text/css">
	.st0{fill:#FFFFFF;}
</style>
<g id="Слой_4">
	<g>
		<path class="st0" d="M27.8,142.3c0-1.3,0.1-2.5,0.6-3.4c0.4-0.9,1-1.6,1.7-2.2c0.7-0.6,1.6-1,2.7-1.2c1-0.3,2.3-0.4,3.6-0.4
			c0.9,0,1.7,0,2.6,0.1c0.9,0.1,1.6,0.3,2.3,0.4c0.7,0.1,1.6,0.4,2.3,0.6l-1.6,4.1c-0.3-0.3-0.7-0.4-1.1-0.7
			c-0.4-0.3-0.9-0.4-1.4-0.6c-0.4-0.1-1-0.3-1.4-0.4c-0.4-0.1-0.9-0.1-1.3-0.1c-0.3,0-0.6,0-0.9,0.1c-0.3,0.1-0.6,0.3-0.9,0.6
			c-0.3,0.3-0.4,0.7-0.6,1.2c-0.3,0.4-0.4,1.2-0.4,1.9c0,0.7,0.1,1.3,0.3,1.9c0.1,0.6,0.3,0.9,0.6,1.2c0.3,0.3,0.6,0.4,0.9,0.6
			c0.3,0.1,0.6,0.1,0.9,0.1c0.4,0,0.9,0,1.3-0.1c0.4-0.1,0.9-0.3,1.4-0.4c0.4-0.1,0.9-0.4,1.4-0.6c0.4-0.3,0.9-0.4,1.1-0.7l1.7,4.3
			c-0.7,0.3-1.4,0.4-2.3,0.6c-0.7,0.1-1.4,0.3-2.3,0.4c-0.9,0.1-1.7,0.1-2.6,0.1c-1.3,0-2.4-0.1-3.6-0.4c-1-0.3-2-0.6-2.7-1.2
			c-0.7-0.6-1.3-1.3-1.7-2.2C28,144.7,27.8,143.6,27.8,142.3z"/>
		<path class="st0" d="M46.5,142.5c0-0.7,0-1.5,0-2.1c0-0.7-0.1-1.3-0.1-2.1c0-0.6-0.1-1.2-0.3-1.8s-0.3-0.9-0.3-1.2h9.5
			c1.1,0,2.2,0.1,2.9,0.4c0.9,0.3,1.4,0.6,2,1c0.6,0.4,0.9,0.9,1.1,1.5c0.3,0.6,0.4,1.2,0.4,1.8c0,0.4,0,0.9-0.1,1.3
			c-0.1,0.4-0.3,0.9-0.6,1.2c-0.3,0.4-0.6,0.7-1,1c-0.4,0.3-0.7,0.6-1.3,0.7c0.6,0.9,1.3,1.8,2,2.5c0.7,0.9,1.4,1.5,2.2,2.2h-8.2
			c0-0.7-0.3-1.6-0.6-2.4c-0.4-0.7-0.9-1.5-1.3-2.2c0,0.4,0,0.9,0,1.3c0,0.4,0,0.9,0.1,1.2c0.1,0.3,0.1,0.7,0.1,1.2
			c0,0.3,0.1,0.6,0.3,0.9h-7.6c0.1-0.3,0.3-0.7,0.4-1.2c0.1-0.4,0.1-1,0.3-1.6c0-0.6,0.1-1.2,0.1-1.9
			C46.5,143.8,46.5,143.2,46.5,142.5z M52.7,138.8c0,0.4,0,0.9,0,1.3c0,0.4,0,0.9,0,1.5h1.9c0.3,0,0.6-0.1,0.9-0.4
			c0.3-0.3,0.3-0.6,0.3-1c0-0.4-0.1-0.7-0.3-1c-0.3-0.3-0.4-0.4-0.9-0.4h-1.9V138.8z"/>
		<path class="st0" d="M81.5,142.3c0,2.4-0.7,4.3-2.2,5.5c-1.4,1.2-3.6,1.8-6.5,1.8c-2.9,0-5-0.6-6.5-1.8c-1.4-1.2-2.2-3.1-2.2-5.5
			c0-2.4,0.7-4.3,2.2-5.5c1.4-1.2,3.6-1.8,6.5-1.8c2.9,0,5,0.6,6.5,1.8C80.8,138,81.5,139.8,81.5,142.3z M70.6,142.3
			c0,0.4,0,1,0.1,1.5c0,0.4,0.1,0.9,0.3,1.2c0.1,0.3,0.4,0.6,0.7,0.7c0.3,0.1,0.7,0.3,1.1,0.3c0.4,0,0.9-0.1,1.1-0.3
			c0.3-0.1,0.6-0.4,0.7-0.7c0.1-0.3,0.3-0.7,0.3-1.2c0-0.4,0.1-0.9,0.1-1.5c0-0.4,0-1-0.1-1.5c0-0.4-0.1-0.9-0.3-1.2
			c-0.1-0.3-0.4-0.6-0.7-0.7c-0.3-0.1-0.7-0.3-1.1-0.3c-0.6,0-0.9,0.1-1.1,0.3c-0.3,0.1-0.6,0.4-0.7,0.7c-0.1,0.3-0.3,0.7-0.3,1.2
			C70.6,141.3,70.6,141.7,70.6,142.3z"/>
		<path class="st0" d="M82.9,142.3c0-1.3,0.1-2.5,0.6-3.4c0.4-0.9,1-1.6,1.7-2.2c0.7-0.6,1.6-1,2.7-1.2c1-0.3,2.3-0.4,3.6-0.4
			c0.9,0,1.7,0,2.6,0.1c0.9,0.1,1.6,0.3,2.3,0.4c0.7,0.1,1.6,0.4,2.3,0.6l-1.6,4.1c-0.3-0.3-0.7-0.4-1.1-0.7
			c-0.4-0.3-0.9-0.4-1.4-0.6c-0.4-0.1-1-0.3-1.4-0.4c-0.4-0.1-0.9-0.1-1.3-0.1c-0.3,0-0.6,0-0.9,0.1c-0.3,0.1-0.6,0.3-0.9,0.6
			c-0.3,0.3-0.4,0.7-0.6,1.2c-0.1,0.4-0.3,1.2-0.3,1.9c0,0.7,0.1,1.3,0.3,1.9c0.1,0.6,0.3,0.9,0.6,1.2c0.3,0.3,0.6,0.4,0.9,0.6
			c0.3,0.1,0.6,0.1,0.9,0.1c0.4,0,0.9,0,1.3-0.1c0.4-0.1,0.9-0.3,1.4-0.4c0.4-0.1,0.9-0.4,1.4-0.6c0.4-0.3,0.9-0.4,1.1-0.7l1.7,4.3
			c-0.7,0.3-1.4,0.4-2.3,0.6c-0.7,0.1-1.4,0.3-2.3,0.4c-0.9,0.1-1.7,0.1-2.6,0.1c-1.3,0-2.4-0.1-3.6-0.4c-1-0.3-2-0.6-2.7-1.2
			c-0.7-0.6-1.3-1.3-1.7-2.2C83.1,144.7,82.9,143.6,82.9,142.3z"/>
		<path class="st0" d="M105.4,147.2c0,0.1,0,0.4-0.1,0.7c-0.1,0.3-0.1,0.4-0.4,0.7c-0.1,0.1-0.4,0.4-0.7,0.6c-0.3,0.1-0.6,0.1-1,0.1
			c-0.4,0-0.7,0-1-0.1c-0.3-0.1-0.4-0.3-0.7-0.6c-0.1-0.1-0.3-0.4-0.4-0.7c-0.1-0.3-0.1-0.4-0.1-0.7c0-0.1,0-0.4,0.1-0.7
			c0.1-0.3,0.1-0.4,0.4-0.7c0.1-0.1,0.4-0.4,0.7-0.6c0.3-0.1,0.6-0.1,1-0.1c0.4,0,0.7,0,1,0.1c0.3,0.1,0.4,0.3,0.7,0.6
			c0.1,0.1,0.3,0.4,0.4,0.7C105.4,146.8,105.4,147,105.4,147.2z"/>
		<path class="st0" d="M107.6,142.3c0-1.3,0.1-2.5,0.6-3.4c0.4-0.9,1-1.6,1.7-2.2c0.7-0.6,1.6-1,2.7-1.2c1-0.3,2.3-0.4,3.6-0.4
			c0.9,0,1.7,0,2.6,0.1c0.9,0.1,1.6,0.3,2.3,0.4c0.7,0.1,1.6,0.4,2.3,0.6l-1.6,4.1c-0.3-0.3-0.7-0.4-1.1-0.7
			c-0.4-0.3-0.9-0.4-1.4-0.6c-0.4-0.1-1-0.3-1.4-0.4c-0.4-0.1-0.9-0.1-1.3-0.1c-0.3,0-0.6,0-0.9,0.1c-0.3,0.1-0.6,0.3-0.9,0.6
			c-0.3,0.3-0.4,0.7-0.6,1.2c-0.1,0.4-0.3,1.2-0.3,1.9c0,0.7,0.1,1.3,0.3,1.9c0.1,0.4,0.3,0.9,0.6,1.2c0.3,0.3,0.6,0.4,0.9,0.6
			c0.3,0.1,0.6,0.1,0.9,0.1c0.4,0,0.9,0,1.3-0.1c0.4-0.1,0.9-0.3,1.4-0.4c0.4-0.1,0.9-0.4,1.4-0.6c0.4-0.3,0.9-0.4,1.1-0.7l1.7,4.3
			c-0.7,0.3-1.4,0.4-2.3,0.6c-0.7,0.1-1.4,0.3-2.3,0.4c-0.9,0.1-1.7,0.1-2.6,0.1c-1.3,0-2.4-0.1-3.6-0.4c-1-0.3-2-0.6-2.7-1.2
			c-0.7-0.6-1.3-1.3-1.7-2.2C107.7,144.7,107.6,143.6,107.6,142.3z"/>
		<path class="st0" d="M137.8,135.4c0,0.4,0.1,1,0.3,1.8c0.1,0.7,0.4,1.6,0.7,2.5c0.3,0.9,0.7,1.9,1,2.8c0.4,1,0.9,1.9,1.1,2.8
			c0.4,0.9,0.9,1.6,1.1,2.4c0.4,0.7,0.7,1.2,1,1.5h-8c0-0.3,0-0.6,0-0.9c0-0.3-0.1-0.7-0.1-1h-3.2c-0.1,0.4-0.1,0.9-0.1,1.2
			c0,0.3,0,0.6,0.1,0.9h-6.9c0.1-0.3,0.4-0.6,0.7-1c0.3-0.4,0.6-1,0.9-1.6c0.3-0.6,0.6-1.2,0.9-1.9c0.3-0.7,0.6-1.3,0.9-2.1
			c0.3-0.7,0.6-1.5,0.9-2.2c0.3-0.7,0.4-1.3,0.7-2.1c0.1-0.6,0.3-1.2,0.4-1.8c0.1-0.4,0.1-0.9,0.1-1.2H137.8z M134.3,143.9
			c0,0,0-0.1-0.1-0.4c0-0.1-0.1-0.4-0.1-0.6c0-0.1-0.1-0.4-0.1-0.6c0-0.1-0.1-0.3-0.1-0.3c0,0.1-0.1,0.1-0.1,0.4
			c0,0.3-0.1,0.3-0.1,0.6c0,0.1-0.1,0.4-0.1,0.6c0,0.1-0.1,0.3-0.1,0.4h1.1V143.9z"/>
		<path class="st0" d="M154.6,135.4c1,0,2,0.1,2.9,0.4c0.9,0.3,1.4,0.6,2,1c0.6,0.4,0.9,0.9,1.1,1.5c0.3,0.6,0.4,1.2,0.4,1.8
			c0,0.7-0.1,1.3-0.4,1.9c-0.3,0.6-0.7,1.2-1.3,1.5c-0.6,0.4-1.1,0.7-2,1c-0.9,0.3-1.6,0.4-2.6,0.4H152c0,0.9,0.1,1.6,0.3,2.4
			c0.1,0.7,0.3,1.3,0.6,1.9h-7.7c0.1-0.3,0.3-0.7,0.4-1.2c0.1-0.4,0.1-1,0.3-1.6c0-0.6,0.1-1.2,0.1-1.9c0-0.6,0-1.3,0-1.9
			c0-0.7,0-1.5,0-2.1c0-0.7-0.1-1.3-0.1-2.1c0-0.6-0.1-1.2-0.3-1.8c-0.1-0.6-0.3-0.9-0.4-1.2h9.5V135.4z M153.9,141.6
			c0.3,0,0.6-0.1,0.9-0.4c0.3-0.3,0.3-0.6,0.3-1c0-0.4-0.1-0.7-0.3-1c-0.3-0.3-0.4-0.4-0.9-0.4H152c0,0.1,0,0.4,0,0.6
			c0,0.1,0,0.4,0,0.6c0,0.1,0,0.4,0,0.7c0,0.3,0,0.6,0,0.9h1.9V141.6z"/>
		<path class="st0" d="M170.5,135.4c-0.1,0.3-0.3,0.7-0.3,1.2c-0.1,0.6-0.1,1-0.3,1.8c-0.1,0.7-0.1,1.3-0.1,2.1s0,1.5,0,2.1
			s0,1.3,0,1.9c0,0.6,0.1,1.3,0.1,1.9c0,0.6,0.1,1.2,0.3,1.6c0.1,0.4,0.3,0.9,0.4,1.2h-7.7c0.1-0.3,0.3-0.7,0.4-1.2
			c0.1-0.4,0.1-1,0.3-1.6c0-0.6,0.1-1.2,0.1-1.9c0-0.6,0-1.3,0-1.9c0-0.7,0-1.5,0-2.1c0-0.7-0.1-1.3-0.1-2.1c0-0.6-0.1-1.2-0.3-1.8
			s-0.3-0.9-0.4-1.2H170.5z"/>
		<path class="st0" d="M187.5,135.4l1.6,5c-1-0.4-2-0.9-2.9-1c-0.9-0.3-1.7-0.4-2.4-0.6c0,0.6,0,1.2-0.1,1.8c0,0.6,0,1.3,0,1.9
			s0,1.3,0,1.9c0,0.6,0.1,1.3,0.1,1.9c0,0.6,0.1,1.2,0.3,1.6c0.1,0.4,0.3,0.9,0.4,1.2h-7.7c0.1-0.3,0.3-0.7,0.4-1.2
			c0.1-0.4,0.1-1,0.3-1.6c0-0.6,0.1-1.2,0.1-1.9c0-0.6,0-1.3,0-1.9c0-0.4,0-0.7,0-1c0-0.3,0-0.6,0-0.9c0-0.3,0-0.6,0-0.7
			c0-0.3,0-0.6,0-0.9c-0.9,0.1-1.7,0.3-2.6,0.6c-0.9,0.3-1.9,0.6-2.9,1.2l1.6-5.2h13.8V135.4z"/>
		<path class="st0" d="M201.1,135.4c0,0.4,0.1,1,0.3,1.8c0.1,0.7,0.4,1.6,0.7,2.5c0.3,0.9,0.7,1.9,1,2.8c0.4,1,0.9,1.9,1.1,2.8
			c0.4,0.9,0.9,1.6,1.1,2.4c0.4,0.7,0.7,1.2,1,1.5h-8c0-0.3,0-0.6,0-0.9c0-0.3-0.1-0.7-0.1-1h-3.2c-0.1,0.4-0.1,0.9-0.1,1.2
			c0,0.3,0,0.6,0.1,0.9h-6.9c0.1-0.3,0.4-0.6,0.7-1c0.3-0.4,0.6-1,0.9-1.6c0.3-0.6,0.6-1.2,0.9-1.9s0.6-1.3,0.9-2.1
			c0.3-0.7,0.6-1.5,0.9-2.2c0.3-0.7,0.4-1.3,0.7-2.1c0.1-0.6,0.3-1.2,0.4-1.8c0.1-0.4,0.1-0.9,0.1-1.2H201.1z M197.5,143.9
			c0,0,0-0.1-0.1-0.4c0-0.1-0.1-0.4-0.1-0.6c0-0.1-0.1-0.4-0.1-0.6c0-0.1-0.1-0.3-0.1-0.3c0,0.1-0.1,0.1-0.1,0.4
			c0,0.1-0.1,0.3-0.1,0.6c0,0.1-0.1,0.4-0.1,0.6c0,0.1-0.1,0.3-0.1,0.4h1.1V143.9z"/>
		<path class="st0" d="M216.1,135.4c-0.1,0.3-0.3,0.7-0.3,1.2c-0.1,0.6-0.1,1.2-0.3,1.8c0,0.6-0.1,1.3-0.1,2.1s0,1.5,0,2.2
			c0,0.3,0,0.6,0,0.9c0,0.3,0,0.4,0,0.7c0,0.3,0,0.4,0,0.7c0,0.3,0,0.4,0,0.7c0.7,0,1.4-0.1,2.3-0.1c0.7-0.1,1.4-0.1,2.2-0.3
			c0.7-0.1,1.4-0.3,2-0.4c0.7-0.1,1.3-0.4,1.9-0.6l-1.4,5h-13.8c0.1-0.3,0.3-0.7,0.4-1.2c0.1-0.4,0.1-1,0.3-1.6
			c0.1-0.6,0.1-1.2,0.1-1.9c0-0.6,0-1.3,0-1.9c0-0.7,0-1.5,0-2.1c0-0.7-0.1-1.3-0.1-2.1c0-0.7-0.1-1.2-0.3-1.8
			c-0.1-0.6-0.3-0.9-0.4-1.2h7.6V135.4z"/>
		<path class="st0" d="M230,147.2c0,0.1,0,0.4-0.1,0.7c-0.1,0.3-0.1,0.4-0.4,0.7c-0.1,0.1-0.4,0.4-0.7,0.6c-0.3,0.1-0.6,0.1-1,0.1
			c-0.4,0-0.7,0-1-0.1c-0.3-0.1-0.4-0.3-0.7-0.6c-0.3-0.3-0.3-0.4-0.4-0.7c-0.1-0.3-0.1-0.4-0.1-0.7c0-0.1,0-0.4,0.1-0.7
			c0.1-0.3,0.1-0.4,0.4-0.7c0.3-0.3,0.4-0.4,0.7-0.6c0.3-0.1,0.6-0.1,1-0.1c0.4,0,0.7,0,1,0.1c0.3,0.1,0.4,0.3,0.7,0.6
			c0.1,0.1,0.3,0.4,0.4,0.7C230,146.8,230,147,230,147.2z"/>
	</g>
</g>
<g id="Слой_2">
	<g>
		<path class="st0" d="M54.8,52l16.9-18.3l37.1-12.8l15,3.4l4.6-6.2L144,35.8c0,0,31.5,8.8,31.9,9.1c0.4,0.3,4.6,4.5,4.6,4.5
			l10.4,1.9l13.2-2.7l15.4-0.1l8.2,10.1l-5.1,6.8l-15.9-4.3l-26.7,9.8l-21.5-13.5l-27.9,10l-12.5-9.1l-12.2,7.6L83.1,45.3L54.8,52z"
			/>
		<polygon class="st0" points="50.4,57.3 57.9,73.3 69.4,81.1 77.4,49.4 		"/>
		<polygon class="st0" points="81.1,47.5 72.5,81 103,67.3 		"/>
		<polygon class="st0" points="75,83.9 103.8,71 116.8,104 94.3,101.7 		"/>
		<polygon class="st0" points="107.3,68.9 117.7,61.8 126.7,71.6 157.2,61.8 178.3,73.4 204.7,67.6 220.6,74.1 178.3,81 149.6,77.4 
			128.5,83.2 119.3,100.4 		"/>
		<path class="st0" d="M47.1,59.1C46.9,59.8,32,85.4,32,85.4l22.9-9.8L47.1,59.1z"/>
		<polygon class="st0" points="31.5,92.9 48.8,82.3 40.6,99.3 		"/>
		<polygon class="st0" points="56,78.9 48.2,94.3 66,86 		"/>
		<polygon class="st0" points="52.1,98.7 66,92.6 64.9,115.3 		"/>
		<polyline class="st0" points="70.3,84.9 69.3,115.9 90.5,102.4 		"/>
		<polygon class="st0" points="74.3,116.6 94.1,104.6 117.7,107.4 		"/>
		<polygon class="st0" points="64.3,23.3 70.8,30.9 86,25.5 		"/>
		<polygon class="st0" points="66.7,34 51.5,51 39.4,39.7 		"/>
	</g>
</g>
</svg>
