<svg width="28" height="20" viewBox="0 0 28 20" fill="none" xmlns="http://www.w3.org/2000/svg">
<path d="M27.75 7.1376C27.8118 5.34842 27.4206 3.57262 26.6125 1.9751C26.0643 1.3196 25.3034 0.87724 24.4625 0.725102C20.9844 0.409509 17.4919 0.280157 14 0.337602C10.5208 0.27755 7.04092 0.402727 3.57503 0.712602C2.88981 0.837248 2.25568 1.15865 1.75003 1.6376C0.625034 2.6751 0.500034 4.4501 0.375034 5.9501C0.193674 8.64706 0.193674 11.3531 0.375034 14.0501C0.411196 14.8944 0.536901 15.7324 0.750033 16.5501C0.900752 17.1814 1.20569 17.7655 1.63753 18.2501C2.14662 18.7544 2.79551 19.0941 3.50003 19.2251C6.19493 19.5577 8.91031 19.6956 11.625 19.6376C16 19.7001 19.8375 19.6376 24.375 19.2876C25.0969 19.1647 25.764 18.8245 26.2875 18.3126C26.6375 17.9625 26.8989 17.534 27.05 17.0626C27.4971 15.6909 27.7166 14.2552 27.7 12.8126C27.75 12.1126 27.75 7.8876 27.75 7.1376ZM11.175 13.5626V5.8251L18.575 9.7126C16.5 10.8626 13.7625 12.1626 11.175 13.5626Z" fill="url(#paint0_linear_42_220)"/>
<defs>
<linearGradient id="paint0_linear_42_220" x1="5.83044" y1="25.9432" x2="-7.06988" y2="16.0969" gradientUnits="userSpaceOnUse">
<stop stop-color="#802B6A"/>
<stop offset="1" stop-color="#5E84D2"/>
</linearGradient>
</defs>
</svg>
