<svg width="26" height="22" viewBox="0 0 26 22" fill="none" xmlns="http://www.w3.org/2000/svg">
<path d="M25.2433 2.92355C24.8404 3.10227 24.4261 3.2531 24.0028 3.37556C24.5039 2.80879 24.886 2.1419 25.1193 1.41213C25.1716 1.24855 25.1174 1.0695 24.9829 0.962518C24.8486 0.855452 24.662 0.842628 24.5142 0.93025C23.6152 1.46343 22.6453 1.8466 21.6284 2.07066C20.604 1.06967 19.2126 0.5 17.7743 0.5C14.7381 0.5 12.268 2.97005 12.268 6.00612C12.268 6.24524 12.2831 6.48303 12.3131 6.71752C8.54548 6.38672 5.04284 4.53491 2.63758 1.58448C2.55186 1.47931 2.41981 1.42264 2.28461 1.43348C2.14933 1.44407 2.02779 1.52035 1.95944 1.6376C1.47161 2.47468 1.2137 3.43207 1.2137 4.40617C1.2137 5.73291 1.68739 6.99172 2.52415 7.97534C2.26972 7.88722 2.02282 7.77709 1.78718 7.64628C1.66067 7.57587 1.50627 7.57694 1.38059 7.64901C1.25483 7.72108 1.17598 7.85363 1.17267 7.99851C1.17209 8.02291 1.17209 8.04732 1.17209 8.07206C1.17209 10.0525 2.23795 11.8354 3.86752 12.8072C3.72752 12.7932 3.58761 12.773 3.4486 12.7464C3.3053 12.719 3.15794 12.7692 3.0613 12.8785C2.96449 12.9877 2.93247 13.14 2.97707 13.279C3.58024 15.1622 5.13319 16.5473 7.01057 16.9696C5.45348 17.9449 3.67283 18.4557 1.80356 18.4557C1.41352 18.4557 1.02125 18.4328 0.637336 18.3874C0.44662 18.3647 0.26426 18.4773 0.199309 18.6587C0.134358 18.8401 0.203198 19.0424 0.365452 19.1464C2.76682 20.6862 5.5435 21.5 8.39515 21.5C14.0011 21.5 17.5081 18.8564 19.4628 16.6387C21.9003 13.8735 23.2983 10.2133 23.2983 6.5968C23.2983 6.44572 23.296 6.29315 23.2914 6.14107C24.2531 5.41651 25.081 4.53963 25.7548 3.53177C25.8571 3.3787 25.8461 3.1764 25.7275 3.03549C25.6091 2.8945 25.4118 2.84891 25.2433 2.92355Z" fill="url(#paint0_linear_42_184)"/>
<defs>
<linearGradient id="paint0_linear_42_184" x1="5.38695" y1="28.325" x2="-7.92877" y2="19.6022" gradientUnits="userSpaceOnUse">
<stop stop-color="#802B6A"/>
<stop offset="1" stop-color="#5E84D2"/>
</linearGradient>
</defs>
</svg>
