<svg width="30" height="24" viewBox="0 0 30 24" fill="none" xmlns="http://www.w3.org/2000/svg">
<path d="M25.3964 2.46259C23.4514 1.56989 21.3989 0.933327 19.2901 0.568844C19.2709 0.565098 19.2509 0.567559 19.2332 0.575871C19.2155 0.584183 19.2008 0.597918 19.1914 0.615094C18.9289 1.08384 18.6364 1.69509 18.4314 2.17759C16.1581 1.83232 13.8458 1.83232 11.5726 2.17759C11.3445 1.64297 11.087 1.12134 10.8014 0.615094C10.7915 0.598303 10.7768 0.584894 10.7592 0.576636C10.7415 0.568379 10.7218 0.565662 10.7026 0.568844C8.59367 0.93257 6.54102 1.56916 4.59636 2.46259C4.5799 2.4695 4.56594 2.48128 4.55636 2.49634C0.666363 8.3076 -0.399888 13.9751 0.123863 19.5713C0.125135 19.5852 0.129228 19.5987 0.13589 19.611C0.142553 19.6232 0.151646 19.634 0.162613 19.6426C2.42711 21.3204 4.96025 22.6011 7.65386 23.4301C7.67285 23.4356 7.69306 23.4352 7.71181 23.4289C7.73056 23.4227 7.74697 23.4109 7.75886 23.3951C8.33794 22.6082 8.85055 21.7745 9.29136 20.9026C9.29751 20.8907 9.30106 20.8776 9.30177 20.8642C9.30248 20.8508 9.30035 20.8374 9.29551 20.8248C9.29066 20.8123 9.28322 20.801 9.27368 20.7915C9.26413 20.7821 9.25269 20.7748 9.24011 20.7701C8.43189 20.4608 7.64944 20.088 6.90011 19.6551C6.88638 19.6472 6.87482 19.6359 6.86646 19.6224C6.85811 19.609 6.85322 19.5936 6.85223 19.5778C6.85124 19.5619 6.85418 19.5461 6.86079 19.5317C6.8674 19.5173 6.87747 19.5047 6.89011 19.4951C7.04791 19.377 7.20295 19.2553 7.35511 19.1301C7.36842 19.1193 7.38447 19.1124 7.40147 19.1102C7.41846 19.108 7.43574 19.1106 7.45136 19.1176C12.3614 21.3588 17.6764 21.3588 22.5289 19.1176C22.5446 19.1103 22.5622 19.1076 22.5794 19.1098C22.5967 19.112 22.6129 19.1191 22.6264 19.1301C22.7764 19.2526 22.9339 19.3776 23.0926 19.4951C23.1051 19.5045 23.1151 19.5169 23.1218 19.5311C23.1284 19.5452 23.1315 19.5608 23.1308 19.5765C23.13 19.5921 23.1255 19.6073 23.1175 19.6208C23.1096 19.6343 23.0984 19.6456 23.0851 19.6538C22.3375 20.0908 21.5543 20.4638 20.7439 20.7688C20.7312 20.7737 20.7198 20.7811 20.7102 20.7907C20.7007 20.8002 20.6932 20.8117 20.6884 20.8243C20.6836 20.8369 20.6814 20.8504 20.6822 20.8639C20.6829 20.8774 20.6865 20.8906 20.6926 20.9026C21.1426 21.7751 21.6576 22.6051 22.2239 23.3938C22.2355 23.4099 22.2519 23.4219 22.2707 23.4282C22.2896 23.4345 22.3099 23.4347 22.3289 23.4288C25.027 22.6024 27.5642 21.3215 29.8314 19.6413C29.8424 19.6335 29.8517 19.6235 29.8586 19.6119C29.8654 19.6002 29.8698 19.5873 29.8714 19.5738C30.4964 13.1026 28.8239 7.48135 25.4351 2.49884C25.4272 2.48204 25.4134 2.46871 25.3964 2.46134V2.46259ZM10.0251 16.1626C8.54636 16.1626 7.32886 14.8063 7.32886 13.1388C7.32886 11.4726 8.52386 10.1151 10.0251 10.1151C11.5376 10.1151 12.7451 11.4851 12.7214 13.1401C12.7214 14.8063 11.5264 16.1626 10.0251 16.1626ZM19.9939 16.1626C18.5151 16.1626 17.2976 14.8063 17.2976 13.1388C17.2976 11.4726 18.4914 10.1151 19.9939 10.1151C21.5064 10.1151 22.7139 11.4851 22.6901 13.1401C22.6901 14.8063 21.5076 16.1626 19.9939 16.1626Z" fill="url(#paint0_linear_42_190)"/>
<defs>
<linearGradient id="paint0_linear_42_190" x1="6.09558" y1="30.8657" x2="-8.79151" y2="20.3903" gradientUnits="userSpaceOnUse">
<stop stop-color="#802B6A"/>
<stop offset="1" stop-color="#5E84D2"/>
</linearGradient>
</defs>
</svg>
