<svg width="26" height="26" viewBox="0 0 26 26" fill="none" xmlns="http://www.w3.org/2000/svg">
<path d="M0.178492 24.1647L6.41862 13.0001L0.12298 1.73591C-0.0679893 1.3946 -0.0153389 0.968782 0.252914 0.684082C0.521431 0.399187 0.943281 0.321057 1.29532 0.492007L25.4939 12.1932C25.8033 12.3428 26 12.6564 26 13.0001C26 13.3439 25.8033 13.6573 25.4939 13.8069L1.29532 25.5086C1.17085 25.5688 1.0376 25.5978 0.905451 25.5978C0.90259 25.5978 0.900381 25.5976 0.896221 25.5978C0.40131 25.5978 0 25.1965 0 24.7016C0 24.5004 0.0664959 24.3144 0.178492 24.1647ZM23.045 13.0001L3.0747 3.3433L8.2275 12.563C8.37954 12.8345 8.37954 13.1656 8.2275 13.4373L3.0747 22.6573L23.045 13.0001Z" fill="url(#paint0_linear_42_865)"/>
<defs>
<linearGradient id="paint0_linear_42_865" x1="13" y1="0.402222" x2="13" y2="25.5978" gradientUnits="userSpaceOnUse">
<stop stop-color="#3C7EFF"/>
<stop offset="1" stop-color="#E741BC"/>
</linearGradient>
</defs>
</svg>
