<svg width="26" height="26" viewBox="0 0 26 26" fill="none" xmlns="http://www.w3.org/2000/svg">
<path d="M25.8215 24.1647L19.5814 13.0001L25.877 1.73591C26.068 1.3946 26.0153 0.968782 25.7471 0.684082C25.4786 0.399187 25.0567 0.321057 24.7047 0.492007L0.50609 12.1932C0.19669 12.3428 0 12.6564 0 13.0001C0 13.3439 0.19669 13.6573 0.50609 13.8069L24.7047 25.5086C24.8292 25.5688 24.9624 25.5978 25.0945 25.5978C25.0974 25.5978 25.0996 25.5976 25.1038 25.5978C25.5987 25.5978 26 25.1965 26 24.7016C26 24.5004 25.9335 24.3144 25.8215 24.1647ZM2.95496 13.0001L22.9253 3.3433L17.7725 12.563C17.6205 12.8345 17.6205 13.1656 17.7725 13.4373L22.9253 22.6573L2.95496 13.0001Z" fill="url(#paint0_linear_42_868)"/>
<defs>
<linearGradient id="paint0_linear_42_868" x1="13" y1="0.402222" x2="13" y2="25.5978" gradientUnits="userSpaceOnUse">
<stop stop-color="#3C7EFF"/>
<stop offset="1" stop-color="#E741BC"/>
</linearGradient>
</defs>
</svg>
