<svg width="40" height="40" viewBox="0 0 40 40" fill="none" xmlns="http://www.w3.org/2000/svg">
<rect x="0.5" y="0.5" width="38.999" height="38.999" rx="11.5" stroke="white"/>
<g clip-path="url(#clip0_140_2)">
<path d="M27.136 22.2705L20.8503 15.9848C20.3737 15.5082 19.6009 15.5082 19.1244 15.9848L19.1071 16.002C18.6305 16.4786 18.6305 17.2513 19.1071 17.7279L25.3929 24.0136C25.8695 24.4902 26.6422 24.4902 27.1188 24.0136L27.136 23.9964C27.6126 23.5198 27.6126 22.7471 27.136 22.2705Z" fill="white"/>
<path d="M20.8912 16.002L20.8739 15.9848C20.3973 15.5082 19.6246 15.5082 19.148 15.9848L12.8623 22.2705C12.3857 22.7471 12.3857 23.5198 12.8623 23.9964L12.8795 24.0136C13.3561 24.4902 14.1288 24.4902 14.6054 24.0136L20.8912 17.7279C21.3677 17.2513 21.3677 16.4786 20.8912 16.002Z" fill="white"/>
</g>
<defs>
<clipPath id="clip0_140_2">
<rect width="16" height="16" fill="white" transform="translate(27.9993 11.999) rotate(90)"/>
</clipPath>
</defs>
</svg>
