<?xml version="1.0" standalone="no"?>
<!DOCTYPE svg PUBLIC "-//W3C//DTD SVG 20010904//EN"
 "http://www.w3.org/TR/2001/REC-SVG-20010904/DTD/svg10.dtd">
<svg version="1.0" xmlns="http://www.w3.org/2000/svg"
 width="168.000000pt" height="158.000000pt" viewBox="0 0 168.000000 158.000000"
 preserveAspectRatio="xMidYMid meet">

<g transform="translate(0.000000,158.000000) scale(0.100000,-0.100000)"
fill="#000000" stroke="none">
<path d="M613 1455 c-65 -27 -109 -102 -169 -285 -18 -58 -41 -125 -50 -150
-9 -25 -20 -61 -25 -80 -6 -19 -14 -44 -19 -55 -4 -11 -34 -101 -65 -200 -31
-99 -60 -189 -65 -200 -17 -40 -30 -115 -30 -171 0 -45 6 -66 27 -101 57 -89
159 -94 473 -23 102 23 201 44 220 47 19 2 46 8 60 13 14 4 66 16 115 25 50 9
101 21 115 25 14 5 44 11 67 14 61 8 164 44 200 72 56 42 76 87 70 153 -8 88
-62 162 -310 423 -51 54 -90 98 -182 203 -214 245 -272 293 -356 298 -26 2
-61 -2 -76 -8z"/>
</g>
</svg>
