<?xml version="1.0" standalone="no"?>
<!DOCTYPE svg PUBLIC "-//W3C//DTD SVG 20010904//EN"
 "http://www.w3.org/TR/2001/REC-SVG-20010904/DTD/svg10.dtd">
<svg version="1.0" xmlns="http://www.w3.org/2000/svg"
 width="200.000000pt" height="179.000000pt" viewBox="0 0 200.000000 179.000000"
 preserveAspectRatio="xMidYMid meet">

<g transform="translate(0.000000,179.000000) scale(0.100000,-0.100000)"
fill="#000000" stroke="none">
<path d="M973 1636 c-43 -19 -89 -86 -229 -331 -196 -341 -307 -533 -374 -645
-208 -349 -222 -410 -110 -471 20 -11 155 -15 729 -17 774 -3 786 -2 831 56
40 50 11 143 -102 325 -26 43 -48 80 -48 83 0 2 -18 33 -40 69 -22 36 -40 68
-40 72 0 3 -6 14 -14 22 -7 9 -32 52 -56 96 -23 44 -46 82 -50 85 -4 3 -15 21
-23 40 -16 35 -47 90 -57 100 -7 7 -48 80 -68 120 -9 19 -20 37 -23 40 -3 3
-26 41 -49 85 -94 174 -168 268 -220 279 -14 3 -39 -1 -57 -8z"/>
</g>
</svg>
